<svg width="120" height="53" viewBox="0 0 120 53" fill="none" xmlns="http://www.w3.org/2000/svg">
<rect width="120" height="52.5" rx="26.25" fill="#1A76D2"/>
<path d="M18.5455 21.0991L16.5382 27.1427H20.5309L18.5455 21.0991ZM12.1527 32.75V31.7245L13.9418 31.4627L18.5018 18.1973H20.2909L24.8509 31.5718L26.3345 31.7464V32.75H20.0291V31.7464L21.9491 31.5064L20.9018 28.2773H16.1455L15.0982 31.4409L16.9964 31.7245V32.75H12.1527ZM27.2279 32.75V31.8555L28.6461 31.5936C28.6606 31.0555 28.6679 30.4736 28.6679 29.8482C28.6824 29.2082 28.6897 28.6482 28.6897 28.1682V18.7864L27.097 18.59V17.7391L31.0024 16.7573L31.3297 16.9536L31.2424 20.03V23.5427C32.217 22.51 33.3006 21.9936 34.4934 21.9936C35.2788 21.9936 35.9915 22.2045 36.6315 22.6264C37.2715 23.0482 37.7734 23.6664 38.137 24.4809C38.5152 25.2809 38.7043 26.2627 38.7043 27.4264C38.7043 28.5755 38.4934 29.5718 38.0715 30.4155C37.6643 31.2591 37.1188 31.9136 36.4352 32.3791C35.7515 32.83 34.9879 33.0555 34.1443 33.0555C33.577 33.0555 33.0461 32.9464 32.5515 32.7282C32.0715 32.51 31.6206 32.1464 31.1988 31.6373L30.9152 33.0118L27.2279 32.75ZM33.4461 23.5427C33.1115 23.5427 32.7624 23.63 32.3988 23.8045C32.0497 23.9791 31.6861 24.2264 31.3079 24.5464V30.59C31.977 31.2155 32.6606 31.5282 33.3588 31.5282C34.0715 31.5282 34.6752 31.2009 35.1697 30.5464C35.6643 29.8918 35.9115 28.8955 35.9115 27.5573C35.9115 26.2045 35.6788 25.2009 35.2134 24.5464C34.7624 23.8773 34.1734 23.5427 33.4461 23.5427ZM45.6791 33.0555C44.69 33.0555 43.7955 32.8373 42.9955 32.4009C42.21 31.9645 41.5845 31.3318 41.1191 30.5027C40.6536 29.6736 40.4209 28.6845 40.4209 27.5355C40.4209 26.3718 40.6609 25.3755 41.1409 24.5464C41.6355 23.7173 42.2827 23.0845 43.0827 22.6482C43.8827 22.2118 44.7482 21.9936 45.6791 21.9936C46.61 21.9936 47.4755 22.2118 48.2755 22.6482C49.0755 23.0845 49.7227 23.7173 50.2173 24.5464C50.7118 25.3609 50.9591 26.3573 50.9591 27.5355C50.9591 28.6991 50.7191 29.6955 50.2391 30.5245C49.7736 31.3391 49.1409 31.9645 48.3409 32.4009C47.5555 32.8373 46.6682 33.0555 45.6791 33.0555ZM45.6791 31.9864C46.4645 31.9864 47.0609 31.6227 47.4682 30.8955C47.89 30.1682 48.1009 29.0555 48.1009 27.5573C48.1009 24.5609 47.2936 23.0627 45.6791 23.0627C44.0791 23.0627 43.2791 24.5609 43.2791 27.5573C43.2791 29.0555 43.4827 30.1682 43.89 30.8955C44.2973 31.6227 44.8936 31.9864 45.6791 31.9864ZM60.2925 32.9464L60.1179 31.0264C59.0561 32.3791 57.8198 33.0555 56.4089 33.0555C55.507 33.0555 54.7798 32.7645 54.227 32.1827C53.6889 31.5864 53.427 30.5682 53.4416 29.1282L53.5289 23.7391L52.1107 23.4336V22.5827L55.9289 22.1245L56.1907 22.3645L56.0816 25.4191V29.0409C56.0816 29.8555 56.2052 30.43 56.4525 30.7645C56.7143 31.0845 57.0852 31.2445 57.5652 31.2445C57.9725 31.2445 58.387 31.1282 58.8089 30.8955C59.2452 30.6627 59.6598 30.3645 60.0525 30.0009L60.1179 23.7391L58.7434 23.4336V22.6264L62.4743 22.1245L62.7579 22.3645L62.6925 25.4191V31.5718L64.0234 31.8555V32.75L60.2925 32.9464ZM69.2102 33.0555C68.3374 33.0555 67.6538 32.8373 67.1593 32.4009C66.6647 31.9645 66.4174 31.2664 66.4174 30.3064C66.4174 29.9718 66.4174 29.6591 66.4174 29.3682C66.432 29.0627 66.4393 28.6991 66.4393 28.2773V23.63H64.8247V22.4955L66.592 22.2773L67.4211 19.2882H69.1883L69.1011 22.2991H71.7193V23.63H69.0793V30.0664C69.0793 30.6045 69.1811 30.9973 69.3847 31.2445C69.6029 31.4918 69.8865 31.6155 70.2356 31.6155C70.6283 31.6155 71.072 31.4336 71.5665 31.07L72.0902 31.6155C71.8138 32.0664 71.4356 32.4227 70.9556 32.6845C70.4756 32.9318 69.8938 33.0555 69.2102 33.0555ZM77.6637 32.75V31.8555L79.0819 31.5718C79.0964 31.0336 79.1037 30.4518 79.1037 29.8264C79.1037 29.1864 79.1037 28.6336 79.1037 28.1682V27.0118C79.1037 26.4155 79.0964 25.9427 79.0819 25.5936C79.0819 25.23 79.0673 24.83 79.0382 24.3936L77.511 24.1973V23.3682L81.1546 21.9936L81.5037 22.2118L81.6564 23.9136C82.18 23.3173 82.7473 22.8518 83.3582 22.5173C83.9837 22.1682 84.631 21.9936 85.3 21.9936C86.711 21.9936 87.62 22.6555 88.0273 23.9791C88.6091 23.2809 89.2128 22.7791 89.8382 22.4736C90.4637 22.1536 91.111 21.9936 91.78 21.9936C92.7691 21.9936 93.511 22.2991 94.0055 22.91C94.5 23.5209 94.7473 24.4955 94.7473 25.8336V28.1682C94.7473 28.6627 94.7473 29.2227 94.7473 29.8482C94.7473 30.4591 94.7546 31.0409 94.7691 31.5936L96.1 31.8555V32.75H90.7764V31.8555L92.1291 31.5718C92.1437 31.0336 92.151 30.4591 92.151 29.8482C92.151 29.2227 92.151 28.6627 92.151 28.1682V26.1609C92.151 25.2445 92.0273 24.6264 91.78 24.3064C91.5473 23.9864 91.1546 23.8264 90.6019 23.8264C89.831 23.8264 89.031 24.1973 88.2019 24.9391C88.2164 25.0845 88.2237 25.2373 88.2237 25.3973C88.2382 25.5573 88.2455 25.7245 88.2455 25.8991V28.1682C88.2455 28.6627 88.2455 29.2227 88.2455 29.8482C88.2455 30.4591 88.2528 31.0409 88.2673 31.5936L89.5764 31.8555V32.75H84.231V31.8555L85.6273 31.5718C85.6419 31.0336 85.6491 30.4591 85.6491 29.8482C85.6491 29.2227 85.6491 28.6627 85.6491 28.1682V26.2045C85.6491 25.3173 85.5328 24.6991 85.3 24.35C85.0819 24.0009 84.6891 23.8264 84.1219 23.8264C83.7146 23.8264 83.3073 23.9282 82.9 24.1318C82.5073 24.3209 82.1219 24.5827 81.7437 24.9173V28.1682C81.7437 28.6482 81.7437 29.2009 81.7437 29.8264C81.7437 30.4518 81.751 31.0409 81.7655 31.5936L83.0528 31.8555V32.75H77.6637ZM102.608 23.0409C102.259 23.0409 101.91 23.1573 101.561 23.39C101.227 23.6082 100.936 23.9718 100.688 24.4809C100.456 24.99 100.31 25.6809 100.252 26.5536H103.241C103.765 26.5536 104.114 26.4445 104.288 26.2264C104.463 26.0082 104.55 25.7027 104.55 25.31C104.55 24.6409 104.361 24.0955 103.983 23.6736C103.605 23.2518 103.147 23.0409 102.608 23.0409ZM102.608 33.0555C101.59 33.0555 100.696 32.8373 99.9247 32.4009C99.1538 31.9645 98.5502 31.3391 98.1138 30.5245C97.6774 29.6955 97.4593 28.7136 97.4593 27.5791C97.4593 26.4155 97.7065 25.4191 98.2011 24.59C98.7102 23.7464 99.3647 23.1064 100.165 22.67C100.979 22.2191 101.845 21.9936 102.761 21.9936C103.619 21.9936 104.368 22.1755 105.008 22.5391C105.648 22.9027 106.143 23.4118 106.492 24.0664C106.856 24.7209 107.037 25.4918 107.037 26.3791C107.037 26.8445 106.994 27.2445 106.907 27.5791H100.23C100.288 28.83 100.616 29.7682 101.212 30.3936C101.823 31.0191 102.587 31.3318 103.503 31.3318C104.143 31.3318 104.681 31.2082 105.117 30.9609C105.568 30.6991 105.976 30.3645 106.339 29.9573L106.972 30.5245C106.55 31.3245 105.968 31.95 105.227 32.4009C104.499 32.8373 103.627 33.0555 102.608 33.0555Z" fill="white" fill-opacity="0.97"/>
</svg>
