<svg width="120" height="50" viewBox="0 0 120 50" fill="none" xmlns="http://www.w3.org/2000/svg">
<rect width="120" height="49.5" rx="24.75" fill="#1A76D2"/>
<path d="M18.5455 19.5991L16.5382 25.6427H20.5309L18.5455 19.5991ZM12.1527 31.25V30.2245L13.9418 29.9627L18.5018 16.6973H20.2909L24.8509 30.0718L26.3345 30.2464V31.25H20.0291V30.2464L21.9491 30.0064L20.9018 26.7773H16.1455L15.0982 29.9409L16.9964 30.2245V31.25H12.1527ZM27.2279 31.25V30.3555L28.6461 30.0936C28.6606 29.5555 28.6679 28.9736 28.6679 28.3482C28.6824 27.7082 28.6897 27.1482 28.6897 26.6682V17.2864L27.097 17.09V16.2391L31.0024 15.2573L31.3297 15.4536L31.2424 18.53V22.0427C32.217 21.01 33.3006 20.4936 34.4934 20.4936C35.2788 20.4936 35.9915 20.7045 36.6315 21.1264C37.2715 21.5482 37.7734 22.1664 38.137 22.9809C38.5152 23.7809 38.7043 24.7627 38.7043 25.9264C38.7043 27.0755 38.4934 28.0718 38.0715 28.9155C37.6643 29.7591 37.1188 30.4136 36.4352 30.8791C35.7515 31.33 34.9879 31.5555 34.1443 31.5555C33.577 31.5555 33.0461 31.4464 32.5515 31.2282C32.0715 31.01 31.6206 30.6464 31.1988 30.1373L30.9152 31.5118L27.2279 31.25ZM33.4461 22.0427C33.1115 22.0427 32.7624 22.13 32.3988 22.3045C32.0497 22.4791 31.6861 22.7264 31.3079 23.0464V29.09C31.977 29.7155 32.6606 30.0282 33.3588 30.0282C34.0715 30.0282 34.6752 29.7009 35.1697 29.0464C35.6643 28.3918 35.9115 27.3955 35.9115 26.0573C35.9115 24.7045 35.6788 23.7009 35.2134 23.0464C34.7624 22.3773 34.1734 22.0427 33.4461 22.0427ZM45.6791 31.5555C44.69 31.5555 43.7955 31.3373 42.9955 30.9009C42.21 30.4645 41.5845 29.8318 41.1191 29.0027C40.6536 28.1736 40.4209 27.1845 40.4209 26.0355C40.4209 24.8718 40.6609 23.8755 41.1409 23.0464C41.6355 22.2173 42.2827 21.5845 43.0827 21.1482C43.8827 20.7118 44.7482 20.4936 45.6791 20.4936C46.61 20.4936 47.4755 20.7118 48.2755 21.1482C49.0755 21.5845 49.7227 22.2173 50.2173 23.0464C50.7118 23.8609 50.9591 24.8573 50.9591 26.0355C50.9591 27.1991 50.7191 28.1955 50.2391 29.0245C49.7736 29.8391 49.1409 30.4645 48.3409 30.9009C47.5555 31.3373 46.6682 31.5555 45.6791 31.5555ZM45.6791 30.4864C46.4645 30.4864 47.0609 30.1227 47.4682 29.3955C47.89 28.6682 48.1009 27.5555 48.1009 26.0573C48.1009 23.0609 47.2936 21.5627 45.6791 21.5627C44.0791 21.5627 43.2791 23.0609 43.2791 26.0573C43.2791 27.5555 43.4827 28.6682 43.89 29.3955C44.2973 30.1227 44.8936 30.4864 45.6791 30.4864ZM60.2925 31.4464L60.1179 29.5264C59.0561 30.8791 57.8198 31.5555 56.4089 31.5555C55.507 31.5555 54.7798 31.2645 54.227 30.6827C53.6889 30.0864 53.427 29.0682 53.4416 27.6282L53.5289 22.2391L52.1107 21.9336V21.0827L55.9289 20.6245L56.1907 20.8645L56.0816 23.9191V27.5409C56.0816 28.3555 56.2052 28.93 56.4525 29.2645C56.7143 29.5845 57.0852 29.7445 57.5652 29.7445C57.9725 29.7445 58.387 29.6282 58.8089 29.3955C59.2452 29.1627 59.6598 28.8645 60.0525 28.5009L60.1179 22.2391L58.7434 21.9336V21.1264L62.4743 20.6245L62.7579 20.8645L62.6925 23.9191V30.0718L64.0234 30.3555V31.25L60.2925 31.4464ZM69.2102 31.5555C68.3374 31.5555 67.6538 31.3373 67.1593 30.9009C66.6647 30.4645 66.4174 29.7664 66.4174 28.8064C66.4174 28.4718 66.4174 28.1591 66.4174 27.8682C66.432 27.5627 66.4393 27.1991 66.4393 26.7773V22.13H64.8247V20.9955L66.592 20.7773L67.4211 17.7882H69.1883L69.1011 20.7991H71.7193V22.13H69.0793V28.5664C69.0793 29.1045 69.1811 29.4973 69.3847 29.7445C69.6029 29.9918 69.8865 30.1155 70.2356 30.1155C70.6283 30.1155 71.072 29.9336 71.5665 29.57L72.0902 30.1155C71.8138 30.5664 71.4356 30.9227 70.9556 31.1845C70.4756 31.4318 69.8938 31.5555 69.2102 31.5555ZM77.6637 31.25V30.3555L79.0819 30.0718C79.0964 29.5336 79.1037 28.9518 79.1037 28.3264C79.1037 27.6864 79.1037 27.1336 79.1037 26.6682V25.5118C79.1037 24.9155 79.0964 24.4427 79.0819 24.0936C79.0819 23.73 79.0673 23.33 79.0382 22.8936L77.511 22.6973V21.8682L81.1546 20.4936L81.5037 20.7118L81.6564 22.4136C82.18 21.8173 82.7473 21.3518 83.3582 21.0173C83.9837 20.6682 84.631 20.4936 85.3 20.4936C86.711 20.4936 87.62 21.1555 88.0273 22.4791C88.6091 21.7809 89.2128 21.2791 89.8382 20.9736C90.4637 20.6536 91.111 20.4936 91.78 20.4936C92.7691 20.4936 93.511 20.7991 94.0055 21.41C94.5 22.0209 94.7473 22.9955 94.7473 24.3336V26.6682C94.7473 27.1627 94.7473 27.7227 94.7473 28.3482C94.7473 28.9591 94.7546 29.5409 94.7691 30.0936L96.1 30.3555V31.25H90.7764V30.3555L92.1291 30.0718C92.1437 29.5336 92.151 28.9591 92.151 28.3482C92.151 27.7227 92.151 27.1627 92.151 26.6682V24.6609C92.151 23.7445 92.0273 23.1264 91.78 22.8064C91.5473 22.4864 91.1546 22.3264 90.6019 22.3264C89.831 22.3264 89.031 22.6973 88.2019 23.4391C88.2164 23.5845 88.2237 23.7373 88.2237 23.8973C88.2382 24.0573 88.2455 24.2245 88.2455 24.3991V26.6682C88.2455 27.1627 88.2455 27.7227 88.2455 28.3482C88.2455 28.9591 88.2528 29.5409 88.2673 30.0936L89.5764 30.3555V31.25H84.231V30.3555L85.6273 30.0718C85.6419 29.5336 85.6491 28.9591 85.6491 28.3482C85.6491 27.7227 85.6491 27.1627 85.6491 26.6682V24.7045C85.6491 23.8173 85.5328 23.1991 85.3 22.85C85.0819 22.5009 84.6891 22.3264 84.1219 22.3264C83.7146 22.3264 83.3073 22.4282 82.9 22.6318C82.5073 22.8209 82.1219 23.0827 81.7437 23.4173V26.6682C81.7437 27.1482 81.7437 27.7009 81.7437 28.3264C81.7437 28.9518 81.751 29.5409 81.7655 30.0936L83.0528 30.3555V31.25H77.6637ZM102.608 21.5409C102.259 21.5409 101.91 21.6573 101.561 21.89C101.227 22.1082 100.936 22.4718 100.688 22.9809C100.456 23.49 100.31 24.1809 100.252 25.0536H103.241C103.765 25.0536 104.114 24.9445 104.288 24.7264C104.463 24.5082 104.55 24.2027 104.55 23.81C104.55 23.1409 104.361 22.5955 103.983 22.1736C103.605 21.7518 103.147 21.5409 102.608 21.5409ZM102.608 31.5555C101.59 31.5555 100.696 31.3373 99.9247 30.9009C99.1538 30.4645 98.5502 29.8391 98.1138 29.0245C97.6774 28.1955 97.4593 27.2136 97.4593 26.0791C97.4593 24.9155 97.7065 23.9191 98.2011 23.09C98.7102 22.2464 99.3647 21.6064 100.165 21.17C100.979 20.7191 101.845 20.4936 102.761 20.4936C103.619 20.4936 104.368 20.6755 105.008 21.0391C105.648 21.4027 106.143 21.9118 106.492 22.5664C106.856 23.2209 107.037 23.9918 107.037 24.8791C107.037 25.3445 106.994 25.7445 106.907 26.0791H100.23C100.288 27.33 100.616 28.2682 101.212 28.8936C101.823 29.5191 102.587 29.8318 103.503 29.8318C104.143 29.8318 104.681 29.7082 105.117 29.4609C105.568 29.1991 105.976 28.8645 106.339 28.4573L106.972 29.0245C106.55 29.8245 105.968 30.45 105.227 30.9009C104.499 31.3373 103.627 31.5555 102.608 31.5555Z" fill="white" fill-opacity="0.97"/>
</svg>
