<svg xmlns="http://www.w3.org/2000/svg" width="297" height="58" fill="none"><mask id="a" width="280" height="43" x="7" y="5" fill="#000" maskUnits="userSpaceOnUse"><path fill="#fff" d="M7 5h280v43H7z"/><path d="M27.86 42.782q-4.647 0-8.189-1.978a14.3 14.3 0 0 1-5.52-5.612q-1.978-3.634-1.978-8.464 0-4.738 1.932-8.326 1.978-3.635 5.566-5.658 3.634-2.024 8.556-2.024 2.575 0 4.83.552 2.254.506 4.232 1.61l.184 6.9H34.3l-1.104-5.612a9.7 9.7 0 0 0-4.324-1.012q-2.852 0-5.198 1.518-2.3 1.518-3.68 4.554-1.334 2.99-1.334 7.498 0 6.67 2.852 10.12t7.452 3.45q.966 0 1.794-.138a14 14 0 0 0 1.61-.368v-1.794q0-2.025-.046-4.048 0-2.07-.046-4.094l-4.462-.46v-2.162h12.972v2.162l-2.576.276-.092 4.186v6.21a24 24 0 0 1-4.83 1.978q-2.438.736-5.428.736m26.415-25.346-4.232 12.742h8.418zM40.797 42v-2.162l3.772-.552 9.614-27.968h3.772l9.614 28.198 3.128.368V42H57.403v-2.116l4.048-.506-2.208-6.808H49.215l-2.208 6.67 4.002.598V42zm31.514 0v-2.162l4.278-.598V14.17l-4.094-.506v-2.162h10.258l8.97 22.862 8.464-22.862h10.258v2.162l-3.772.414q-.047 2.852-.092 5.796v13.754l.092 5.796 3.864.414V42h-13.57v-2.162l3.634-.46q.092-2.852.092-5.658v-5.474l.046-10.948L91.631 42h-2.944l-9.66-24.702.23 9.016V39.24l3.818.598V42zm41.833-28.336v-2.162h23.184l.322 8.05h-3.22l-.966-5.612h-9.338l-.092 5.796v5.382h5.934l.598-4.002h2.392v10.396h-2.392l-.552-3.956h-5.98v6.256l.092 5.75h10.258l.966-5.612h3.22l-.322 8.05h-24.104v-2.162l3.864-.414q.092-2.852.092-5.796V19.966q0-2.944-.092-5.888zm60.071.184h-1.978l-.092 5.934v8.004h2.254q3.634 0 5.29-1.978t1.656-5.198q0-3.266-1.794-5.014-1.748-1.748-5.336-1.748m-11.96-.184v-2.162h12.42q6.486 0 9.476 2.53 3.036 2.484 3.036 6.578a9.33 9.33 0 0 1-1.288 4.784q-1.242 2.162-4.14 3.45-2.851 1.288-7.728 1.288h-1.886v4.508q.046 2.3.092 4.738l4.186.46V42h-14.168v-2.162l3.864-.414q.092-2.852.092-5.796V19.966q0-2.944-.092-5.888zm27.133 0v-2.162h14.03v2.162l-4.048.46q-.047 2.851-.092 5.796v13.892l.092 5.704h9.292l1.288-6.348h3.22L212.71 42h-23.322v-2.162l3.864-.414q.092-2.898.092-5.704V19.874q0-2.945-.092-5.796zm39.094 3.772-4.232 12.742h8.418zM215.004 42v-2.162l3.772-.552 9.614-27.968h3.772l9.614 28.198 3.128.368V42H231.61v-2.116l4.048-.506-2.208-6.808h-10.028l-2.208 6.67 4.002.598V42zm26.822-28.336v-2.162h13.892v2.162l-3.956.46 5.842 12.788 5.98-12.696-3.68-.552v-2.162h10.028v2.162l-3.68.598-7.406 15.18v5.428q0 2.346.046 4.508l4.37.46V42h-14.766v-2.162l4.324-.46q.046-2.024.046-4.232v-5.06L245 13.986zm35.692 28.98q-1.472 0-2.53-1.058t-1.058-2.53 1.058-2.53 2.53-1.058q1.518 0 2.576 1.058t1.058 2.53-1.058 2.53-2.576 1.058m0-31.74q1.61 0 2.53.874.966.874.966 2.714 0 1.242-.368 4.094t-1.196 7.406l-.874 5.382h-2.07l-.874-5.382q-.828-4.6-1.196-7.406-.368-2.852-.368-4.094 0-1.84.92-2.714.966-.874 2.53-.874"/></mask><path fill="#FCCA0B" d="M27.86 42.782q-4.647 0-8.189-1.978a14.3 14.3 0 0 1-5.52-5.612q-1.978-3.634-1.978-8.464 0-4.738 1.932-8.326 1.978-3.635 5.566-5.658 3.634-2.024 8.556-2.024 2.575 0 4.83.552 2.254.506 4.232 1.61l.184 6.9H34.3l-1.104-5.612a9.7 9.7 0 0 0-4.324-1.012q-2.852 0-5.198 1.518-2.3 1.518-3.68 4.554-1.334 2.99-1.334 7.498 0 6.67 2.852 10.12t7.452 3.45q.966 0 1.794-.138a14 14 0 0 0 1.61-.368v-1.794q0-2.025-.046-4.048 0-2.07-.046-4.094l-4.462-.46v-2.162h12.972v2.162l-2.576.276-.092 4.186v6.21a24 24 0 0 1-4.83 1.978q-2.438.736-5.428.736m26.415-25.346-4.232 12.742h8.418zM40.797 42v-2.162l3.772-.552 9.614-27.968h3.772l9.614 28.198 3.128.368V42H57.403v-2.116l4.048-.506-2.208-6.808H49.215l-2.208 6.67 4.002.598V42zm31.514 0v-2.162l4.278-.598V14.17l-4.094-.506v-2.162h10.258l8.97 22.862 8.464-22.862h10.258v2.162l-3.772.414q-.047 2.852-.092 5.796v13.754l.092 5.796 3.864.414V42h-13.57v-2.162l3.634-.46q.092-2.852.092-5.658v-5.474l.046-10.948L91.631 42h-2.944l-9.66-24.702.23 9.016V39.24l3.818.598V42zm41.833-28.336v-2.162h23.184l.322 8.05h-3.22l-.966-5.612h-9.338l-.092 5.796v5.382h5.934l.598-4.002h2.392v10.396h-2.392l-.552-3.956h-5.98v6.256l.092 5.75h10.258l.966-5.612h3.22l-.322 8.05h-24.104v-2.162l3.864-.414q.092-2.852.092-5.796V19.966q0-2.944-.092-5.888zm60.071.184h-1.978l-.092 5.934v8.004h2.254q3.634 0 5.29-1.978t1.656-5.198q0-3.266-1.794-5.014-1.748-1.748-5.336-1.748m-11.96-.184v-2.162h12.42q6.486 0 9.476 2.53 3.036 2.484 3.036 6.578a9.33 9.33 0 0 1-1.288 4.784q-1.242 2.162-4.14 3.45-2.851 1.288-7.728 1.288h-1.886v4.508q.046 2.3.092 4.738l4.186.46V42h-14.168v-2.162l3.864-.414q.092-2.852.092-5.796V19.966q0-2.944-.092-5.888zm27.133 0v-2.162h14.03v2.162l-4.048.46q-.047 2.851-.092 5.796v13.892l.092 5.704h9.292l1.288-6.348h3.22L212.71 42h-23.322v-2.162l3.864-.414q.092-2.898.092-5.704V19.874q0-2.945-.092-5.796zm39.094 3.772-4.232 12.742h8.418zM215.004 42v-2.162l3.772-.552 9.614-27.968h3.772l9.614 28.198 3.128.368V42H231.61v-2.116l4.048-.506-2.208-6.808h-10.028l-2.208 6.67 4.002.598V42zm26.822-28.336v-2.162h13.892v2.162l-3.956.46 5.842 12.788 5.98-12.696-3.68-.552v-2.162h10.028v2.162l-3.68.598-7.406 15.18v5.428q0 2.346.046 4.508l4.37.46V42h-14.766v-2.162l4.324-.46q.046-2.024.046-4.232v-5.06L245 13.986zm35.692 28.98q-1.472 0-2.53-1.058t-1.058-2.53 1.058-2.53 2.53-1.058q1.518 0 2.576 1.058t1.058 2.53-1.058 2.53-2.576 1.058m0-31.74q1.61 0 2.53.874.966.874.966 2.714 0 1.242-.368 4.094t-1.196 7.406l-.874 5.382h-2.07l-.874-5.382q-.828-4.6-1.196-7.406-.368-2.852-.368-4.094 0-1.84.92-2.714.966-.874 2.53-.874"/><path fill="#000" d="m19.671 40.804-2.48 4.341.042.024zm-5.52-5.612-4.391 2.39.012.024zm-.046-16.79-4.391-2.39-.011.02zm5.566-5.658-2.433-4.368-.023.013zm13.386-1.472-1.19 4.856.095.023zm4.232 1.61 4.998-.133a5 5 0 0 0-2.561-4.233zm.184 6.9v5a5 5 0 0 0 4.998-5.133zm-3.174 0-4.906.965a5 5 0 0 0 4.906 4.035zm-1.104-5.612 4.906-.965a5 5 0 0 0-2.71-3.527zm-9.522.506-2.716-4.198-.038.025zm-3.68 4.554-4.552-2.069-.014.032zm10.764 20.93-.822-4.932zm1.61-.368 1.41 4.797a5 5 0 0 0 3.59-4.797zm-.046-5.842h-5l.001.114zm-.046-4.094 4.999-.114a5 5 0 0 0-4.486-4.86zm-4.462-.46h-5A5 5 0 0 0 27.3 34.37zm0-2.162v-5a5 5 0 0 0-5 5zm12.972 0h5a5 5 0 0 0-5-5zm0 2.162.533 4.971a5 5 0 0 0 4.467-4.971zm-2.576.276-.533-4.971a5 5 0 0 0-4.466 4.862zm-.092 4.186-4.999-.111v.111zm0 6.21 2.37 4.402a5 5 0 0 0 2.63-4.402zm-4.83 1.978-1.361-4.811-.084.024zm-5.428-4.264c-2.37 0-4.236-.498-5.75-1.343l-4.876 8.73c3.21 1.792 6.8 2.613 10.626 2.613zm-5.707-1.32c-1.56-.89-2.745-2.093-3.622-3.684l-8.758 4.828a19.3 19.3 0 0 0 7.418 7.54zm-3.61-3.66c-.857-1.575-1.369-3.549-1.369-6.074h-10c0 3.915.806 7.584 2.587 10.854zm-1.369-6.074c0-2.466.498-4.402 1.335-5.956l-8.805-4.74c-1.74 3.23-2.53 6.845-2.53 10.696zm1.324-5.936c.872-1.603 2.059-2.806 3.63-3.693l-4.912-8.71c-3.213 1.812-5.737 4.38-7.501 7.623zm3.607-3.68c1.553-.865 3.537-1.392 6.123-1.392v-10c-3.976 0-7.696.822-10.989 2.656zm6.123-1.392c1.36 0 2.567.146 3.64.408l2.38-9.712c-1.932-.474-3.945-.696-6.02-.696zm3.735.43c1.042.235 2 .601 2.89 1.098l4.874-8.732a20.7 20.7 0 0 0-5.574-2.123zm.329-3.135.184 6.9 9.996-.266-.184-6.9zm5.182 1.767H34.3v10h3.174zm1.732 4.035-1.104-5.612-9.812 1.93 1.104 5.612zm-3.814-9.139a14.7 14.7 0 0 0-6.52-1.52v10a4.7 4.7 0 0 1 2.128.504zm-6.52-1.52c-2.844 0-5.523.773-7.914 2.32l5.432 8.396c.738-.477 1.524-.716 2.482-.716zm-7.952 2.345c-2.47 1.63-4.25 3.959-5.478 6.658l9.104 4.138c.613-1.349 1.285-2.056 1.882-2.45zm-5.492 6.69c-1.262 2.828-1.768 6.076-1.768 9.535h10c0-2.552.383-4.302.9-5.46zm-1.768 9.535c0 5.06 1.069 9.762 3.998 13.306l7.708-6.372c-.873-1.056-1.706-3.1-1.706-6.934zm3.998 13.306c2.881 3.485 6.796 5.264 11.306 5.264v-10c-1.623 0-2.677-.521-3.598-1.636zm11.306 5.264c.88 0 1.755-.063 2.616-.206l-1.644-9.864a6 6 0 0 1-.972.07zm2.616-.206a19 19 0 0 0 2.199-.503l-2.822-9.594a9 9 0 0 1-1.02.233zm5.788-5.3v-1.794h-10v1.794zm0-1.794q0-2.08-.047-4.162l-9.998.228q.045 1.967.045 3.934zm-.046-4.048q0-2.126-.047-4.208l-9.998.228q.045 1.965.045 3.98zm-4.533-9.068-4.462-.46L27.3 34.37l4.462.46zm.025 4.514v-2.162h-10v2.162zm-5 2.838h12.972v-10H27.813zm7.972-5v2.162h10v-2.162zm4.467-2.81-2.576.277 1.066 9.943 2.576-.276zm-7.042 5.14q-.045 2.115-.092 4.183l9.998.222.092-4.188zm-.093 4.294v4.232h10v-4.232zm0 4.232v1.978h10V38.09zm2.63-2.424a19 19 0 0 1-3.822 1.569l2.724 9.622c2-.566 3.946-1.368 5.839-2.387zm-3.905 1.593c-1.083.328-2.396.523-3.983.523v10c2.4 0 4.706-.295 6.873-.95zm22.433-19.823 4.75-1.56a5 5 0 0 0-9.495-.016zm-4.232 12.742-4.745-1.576a5 5 0 0 0 4.745 6.576zm8.418 0v5a5 5 0 0 0 4.75-6.56zM40.797 42h-5a5 5 0 0 0 5 5zm0-2.162-.724-4.947a5 5 0 0 0-4.276 4.947zm3.772-.552.724 4.947a5 5 0 0 0 4.004-3.322zm9.614-27.968v-5a5 5 0 0 0-4.729 3.375zm3.772 0 4.732-1.614a5 5 0 0 0-4.732-3.386zm9.614 28.198-4.733 1.614a5 5 0 0 0 4.148 3.352zm3.128.368h5a5 5 0 0 0-4.416-4.966zm0 2.116v5a5 5 0 0 0 5-5zm-13.294 0h-5a5 5 0 0 0 5 5zm0-2.116-.62-4.961a5 5 0 0 0-4.38 4.961zm4.048-.506.62 4.961a5 5 0 0 0 4.136-6.503zm-2.208-6.808 4.756-1.543a5 5 0 0 0-4.756-3.457zm-10.028 0v-5a5 5 0 0 0-4.747 3.429zm-2.208 6.67-4.747-1.571a5 5 0 0 0 4.008 6.516zm4.002.598h5a5 5 0 0 0-4.261-4.945zm0 2.162v5a5 5 0 0 0 5-5zm-1.48-26.14-4.232 12.742 9.49 3.152 4.233-12.742zm.514 19.318h8.418v-10h-8.418zm13.168-6.56-4.186-12.742-9.5 3.12L53.71 31.74zM45.797 42v-2.162h-10V42zm-4.276 2.785 3.772-.552-1.448-9.894-3.772.552zm7.776-3.874 9.614-27.968-9.457-3.25L39.84 37.66zm4.886-24.593h3.772v-10h-3.772zm-.96-3.387 9.613 28.199 9.465-3.227-9.614-28.199zm13.761 31.55 3.128.369 1.169-9.932-3.128-.368zm-1.287-4.597V42h10v-2.116zm5-2.884H57.403v10h13.294zm-8.294 5v-2.116h-10V42zm-4.38 2.845 4.048-.506-1.24-9.922-4.049.506zm8.184-7.01-2.208-6.808-9.513 3.085 2.209 6.808zM59.243 27.57H49.215v10h10.028zm-14.775 3.429-2.208 6.67 9.493 3.142 2.208-6.67zm1.8 13.186 4.002.598 1.477-9.89-4.001-.598zm-.26-4.347V42h10v-2.162zm5-2.838H40.798v10h10.212zm21.303 5h-5a5 5 0 0 0 5 5zm0-2.162-.693-4.952a5 5 0 0 0-4.307 4.952zm4.278-.598.692 4.952a5 5 0 0 0 4.308-4.952zm0-25.07h5a5 5 0 0 0-4.387-4.962zm-4.094-.506h-5a5 5 0 0 0 4.386 4.962zm0-2.162v-5a5 5 0 0 0-5 5zm10.258 0 4.654-1.826a5 5 0 0 0-4.654-3.174zm8.97 22.862-4.655 1.826a5 5 0 0 0 9.344-.09zm8.464-22.862v-5a5 5 0 0 0-4.69 3.264zm10.258 0h5a5 5 0 0 0-5-5zm0 2.162.545 4.97a5 5 0 0 0 4.455-4.97zm-3.772.414-.546-4.97a5 5 0 0 0-4.454 4.89zm-.092 5.796-5-.078v.078zm0 13.754h-5v.08zm.092 5.796-5 .08a5 5 0 0 0 4.467 4.892zm3.864.414h5a5 5 0 0 0-4.468-4.971zm0 2.162v5a5 5 0 0 0 5-5zm-13.57 0h-5a5 5 0 0 0 5 5zm0-2.162-.628-4.96a5 5 0 0 0-4.372 4.96zm3.634-.46.627 4.96a5 5 0 0 0 4.37-4.799zm.092-11.132-5-.021v.021zm.046-10.948 5 .021a5 5 0 0 0-9.692-1.75zM91.631 42v5a5 5 0 0 0 4.69-3.27zm-2.944 0-4.657 1.821A5 5 0 0 0 88.687 47zm-9.66-24.702 4.656-1.821a5 5 0 0 0-9.655 1.948zm.23 9.016h5l-.002-.128zm0 12.926h-5a5 5 0 0 0 4.226 4.94zm3.818.598h5a5 5 0 0 0-4.227-4.94zm0 2.162v5a5 5 0 0 0 5-5zm-5.764 0v-2.162h-10V42zm-4.308 2.79 4.278-.598-1.385-9.904-4.278.598zm8.586-5.55V14.17h-10v25.07zM77.202 9.208l-4.094-.506-1.227 9.924 4.094.506zm.293 4.456v-2.162h-10v2.162zm-5 2.838h10.258v-10H72.495zm5.603-3.174 8.97 22.862 9.31-3.652-8.97-22.862zM96.412 36.1l8.464-22.862-9.378-3.472-8.464 22.862zm3.775-19.598h10.258v-10h-10.258zm5.258-5v2.162h10v-2.162zm4.454-2.808-3.772.414 1.091 9.94 3.772-.414zm-8.226 5.303-.092 5.799 9.999.156.092-5.793zm-.092 5.877v5.888h10v-5.888zm0 5.888v1.978h10v-1.978zm0 1.978v5.888h10V27.74zm0 5.967.092 5.796 9.999-.158-.092-5.796zm4.559 10.688 3.864.414 1.065-9.942-3.864-.414zm-.603-4.557V42h10v-2.162zm5-2.838h-13.57v10h13.57zm-8.57 5v-2.162h-10V42zm-4.373 2.798 3.634-.46-1.255-9.92-3.634.46zm8.004-5.259q.095-2.931.095-5.819h-10q0 2.724-.09 5.497zm.095-5.819v-5.474h-10v5.474zm0-5.453.046-10.948-10-.042-.046 10.948zm-9.646-12.699L86.94 40.27l9.383 3.46 9.108-24.702zM91.631 37h-2.944v10h2.944zm1.712 3.179-9.66-24.702-9.313 3.642 9.66 24.702zM74.028 17.425l.23 9.017 9.997-.256-.23-9.015zm.229 8.889V39.24h10V26.314zm4.226 17.866 3.818.598 1.547-9.88-3.818-.598zm-.408-4.342V42h10v-2.162zm5-2.838H72.31v10h10.764zm31.069-23.336h-5a5 5 0 0 0 4.467 4.972zm0-2.162v-5a5 5 0 0 0-5 5zm23.184 0 4.996-.2a5 5 0 0 0-4.996-4.8zm.322 8.05v5a5 5 0 0 0 4.996-5.2zm-3.22 0-4.928.848a5 5 0 0 0 4.928 4.152zm-.966-5.612 4.927-.848a5 5 0 0 0-4.927-4.152zm-9.338 0v-5a5 5 0 0 0-5 4.92zm-.092 5.796-5-.08v.08zm0 5.382h-5a5 5 0 0 0 5 5zm5.934 0v5a5 5 0 0 0 4.945-4.261zm.598-4.002v-5a5 5 0 0 0-4.945 4.261zm2.392 0h5a5 5 0 0 0-5-5zm0 10.396v5a5 5 0 0 0 5-5zm-2.392 0-4.952.691a5 5 0 0 0 4.952 4.309zm-.552-3.956 4.952-.691a5 5 0 0 0-4.952-4.309zm-5.98 0v-5a5 5 0 0 0-5 5zm0 6.256h-5v.08zm.092 5.75-5 .08a5 5 0 0 0 5 4.92zm10.258 0v5a5 5 0 0 0 4.927-4.152zm.966-5.612v-5a5 5 0 0 0-4.928 4.152zm3.22 0 4.996.2a5 5 0 0 0-4.996-5.2zm-.322 8.05v5a5 5 0 0 0 4.996-4.8zm-24.104 0h-5a5 5 0 0 0 5 5zm0-2.162-.533-4.971a5 5 0 0 0-4.467 4.971zm3.864-.414.532 4.971a5 5 0 0 0 4.465-4.81zm0-25.346 4.997-.156a5 5 0 0 0-4.465-4.816zm1.136-.414v-2.162h-10v2.162zm-5 2.838h23.184v-10h-23.184zm18.188-4.8.322 8.05 9.992-.4-.322-8.05zm5.318 2.85h-3.22v10h3.22zm1.707 4.152-.966-5.612-9.855 1.696.966 5.612zm-5.893-9.764h-9.338v10h9.338zm-14.338 4.92-.092 5.797 9.999.158.092-5.796zm-.092 5.876v5.382h10v-5.382zm5 10.382h5.934v-10h-5.934zm10.879-4.261.598-4.002-9.89-1.478-.598 4.002zm-4.347.259h2.392v-10h-2.392zm-2.608-5v10.396h10V21.116zm5 5.396h-2.392v10h2.392zm2.56 4.309-.552-3.956-9.904 1.382.552 3.956zm-5.504-8.265h-5.98v10h5.98zm-10.98 5v6.256h10v-6.256zm0 6.335.092 5.752 9.999-.162-.092-5.748zm5.092 10.671h10.258v-10h-10.258zm15.185-4.152.966-5.612-9.855-1.696-.966 5.612zm-3.961-1.46h3.22v-10h-3.22zm-1.776-5.2-.322 8.05 9.992.4.322-8.05zm4.674 3.25h-24.104v10h24.104zm-19.104 5v-2.162h-10V42zm-4.468 2.81 3.864-.415-1.065-9.943-3.864.415zm8.329-5.225q.095-2.934.095-5.957h-10q0 2.865-.09 5.635zm.095-5.957V27.74h-10v5.888zm0-5.888v-1.978h-10v1.978zm0-1.978v-5.796h-10v5.796zm0-5.796q0-3.023-.095-6.044l-9.995.312q.09 2.865.09 5.732zm-4.56-10.86-3.864-.414-1.065 9.944 3.864.413zm53.697 4.742v-5a5 5 0 0 0-4.999 4.922zm-.092 5.934-4.999-.077-.001.077zm0 8.004h-5a5 5 0 0 0 5 5zm7.544-1.978-3.834-3.21zm-.138-10.212-3.536 3.535.047.046zm-17.296-1.932h-5a5 5 0 0 0 4.467 4.972zm0-2.162v-5a5 5 0 0 0-5 5zm21.896 2.53-3.23 3.817.064.053zm1.748 11.362-4.319-2.52-.017.03zm-4.14 3.45-2.031-4.57q-.014.008-.027.013zm-9.614 1.288v-5a5 5 0 0 0-5 5zm0 4.508h-5l.001.1zm.092 4.738-4.999.094a5 5 0 0 0 4.453 4.876zm4.186.46h5a5 5 0 0 0-4.454-4.97zm0 2.162v5a5 5 0 0 0 5-5zm-14.168 0h-5a5 5 0 0 0 5 5zm0-2.162-.533-4.971a5 5 0 0 0-4.467 4.971zm3.864-.414.533 4.971a5 5 0 0 0 4.464-4.81zm0-25.346 4.997-.156a5 5 0 0 0-4.464-4.816zm8.096-5.23h-1.978v10h1.978zm-6.977 4.922-.092 5.935 9.998.154.092-5.933zm-.093 6.012v5.98h10v-5.98zm0 5.98v2.024h10v-2.024zm5 7.024h2.254v-10h-2.254zm2.254 0c3.272 0 6.728-.907 9.124-3.768l-7.668-6.42c.055-.065.083-.046-.068.01-.186.07-.611.178-1.388.178zm9.124-3.768c2.03-2.425 2.822-5.388 2.822-8.408h-10c0 1.273-.312 1.776-.49 1.988zm2.822-8.408c0-3.097-.874-6.227-3.305-8.595l-6.978 7.162c.018.018.068.066.127.23.067.19.156.563.156 1.203zm-3.259-8.55c-2.455-2.455-5.752-3.212-8.871-3.212v10c1.665 0 1.925.408 1.8.284zm-15.831 1.604v-2.162h-10v2.162zm-5 2.838h12.42v-10h-12.42zm12.42 0c3.86 0 5.584.786 6.246 1.347l6.46-7.634c-3.325-2.813-7.918-3.713-12.706-3.713zm6.31 1.4c.806.66 1.202 1.403 1.202 2.708h10c0-4.154-1.628-7.795-4.87-10.448zm1.202 2.708c0 .84-.198 1.564-.607 2.265l8.638 5.038a14.33 14.33 0 0 0 1.969-7.303zm-.624 2.293c-.171.299-.607.826-1.835 1.372l4.062 9.138c2.636-1.171 4.96-2.944 6.444-5.528zm-1.862 1.384c-.995.45-2.774.845-5.67.845v10c3.605 0 6.978-.463 9.786-1.731zm-5.67.845h-1.886v10h1.886zm-6.886 5v4.508h10v-4.508zm.001 4.608q.046 2.297.092 4.732l9.998-.188q-.046-2.441-.092-4.744zm4.545 9.608 4.186.46 1.092-9.94-4.186-.46zm-.268-4.51V42h10v-2.162zm5-2.838h-14.168v10h14.168zm-9.168 5v-2.162h-10V42zm-4.467 2.81 3.864-.415-1.066-9.943-3.864.415zm8.328-5.225q.095-2.934.095-5.957h-10q0 2.865-.089 5.635zm.095-5.957V27.74h-10v5.888zm0-5.888v-1.978h-10v1.978zm0-1.978v-5.796h-10v5.796zm0-5.796q0-3.023-.095-6.044l-9.995.312q.09 2.865.09 5.732zm-4.559-10.86-3.864-.414-1.066 9.944 3.864.413zm22.736 4.558h-5a5 5 0 0 0 4.467 4.972zm0-2.162v-5a5 5 0 0 0-5 5zm14.03 0h5a5 5 0 0 0-5-5zm0 2.162.564 4.968a5 5 0 0 0 4.436-4.968zm-4.048.46-.565-4.968a5 5 0 0 0-4.435 4.887zm-.092 5.796-5-.078v.078zm0 13.892h-5v.082zm.092 5.704-5 .08a5 5 0 0 0 5 4.92zm9.292 0v5a5 5 0 0 0 4.9-4.006zm1.288-6.348v-5a5 5 0 0 0-4.9 4.006zm3.22 0 4.993.26a5 5 0 0 0-4.993-5.26zM212.71 42v5a5 5 0 0 0 4.993-4.74zm-23.322 0h-5a5 5 0 0 0 5 5zm0-2.162-.533-4.971a5 5 0 0 0-4.467 4.971zm3.864-.414.532 4.971a5 5 0 0 0 4.465-4.812zm0-25.346 4.997-.161a5 5 0 0 0-4.465-4.81zm1.136-.414v-2.162h-10v2.162zm-5 2.838h14.03v-10h-14.03zm9.03-5v2.162h10v-2.162zm4.435-2.806-4.048.46 1.129 9.936 4.048-.46zm-8.483 5.347-.092 5.799 9.999.156.092-5.793zm-.092 5.877v5.842h10V19.92zm0 5.842v2.806h10v-2.806zm0 2.806v5.244h10v-5.244zm0 5.326q.047 2.805.092 5.701l9.999-.158-.092-5.707zm5.092 10.622h9.292v-10h-9.292zm14.192-4.006 1.288-6.348-9.8-1.988-1.288 6.348zm-3.612-2.342h3.22v-10h-3.22zm-1.773-5.26-.46 8.832 9.986.52.46-8.832zM212.71 37h-23.322v10h23.322zm-18.322 5v-2.162h-10V42zm-4.468 2.81 3.864-.415-1.065-9.943-3.864.415zm8.329-5.227q.095-2.975.095-5.863h-10q0 2.725-.09 5.545zm.095-5.863v-5.474h-10v5.474zm0-5.474v-2.484h-10v2.484zm0-2.484v-5.888h-10v5.888zm0-5.888q0-3.022-.095-5.957l-9.995.322q.09 2.769.09 5.635zm-4.56-10.768-3.864-.414-1.065 9.944 3.864.413zm34.698 8.33 4.75-1.56a5 5 0 0 0-9.495-.016zm-4.232 12.742-4.745-1.576a4.997 4.997 0 0 0 4.745 6.576zm8.418 0v5a5.002 5.002 0 0 0 4.75-6.56zM215.004 42h-5a5 5 0 0 0 5 5zm0-2.162-.724-4.947a5 5 0 0 0-4.276 4.947zm3.772-.552.724 4.947a5 5 0 0 0 4.004-3.322zm9.614-27.968v-5a5 5 0 0 0-4.729 3.375zm3.772 0 4.732-1.614a5 5 0 0 0-4.732-3.386zm9.614 28.198-4.733 1.614a5 5 0 0 0 4.148 3.352zm3.128.368h5a5 5 0 0 0-4.416-4.966zm0 2.116v5a5 5 0 0 0 5-5zm-13.294 0h-5a5 5 0 0 0 5 5zm0-2.116-.621-4.961a5 5 0 0 0-4.379 4.961zm4.048-.506.62 4.961a5 5 0 0 0 4.136-6.503zm-2.208-6.808 4.756-1.543a5 5 0 0 0-4.756-3.457zm-10.028 0v-5a5 5 0 0 0-4.747 3.429zm-2.208 6.67-4.747-1.571a4.998 4.998 0 0 0 4.008 6.516zm4.002.598h5a5 5 0 0 0-4.261-4.945zm0 2.162v5a5 5 0 0 0 5-5zm-1.479-26.14-4.232 12.742 9.49 3.152 4.232-12.742zm.513 19.318h8.418v-10h-8.418zm13.168-6.56-4.186-12.742-9.501 3.12 4.186 12.743zM220.004 42v-2.162h-10V42zm-4.276 2.785 3.772-.552-1.448-9.894-3.772.552zm7.776-3.874 9.614-27.968-9.457-3.25-9.614 27.968zm4.886-24.593h3.772v-10h-3.772zm-.961-3.387 9.614 28.199 9.465-3.227-9.614-28.199zm13.762 31.55 3.128.369 1.169-9.932-3.128-.368zm-1.287-4.597V42h10v-2.116zm5-2.884H231.61v10h13.294zm-8.294 5v-2.116h-10V42zm-4.38 2.845 4.048-.506-1.241-9.922-4.048.506zm8.184-7.01-2.208-6.808-9.512 3.085 2.208 6.808zM233.45 27.57h-10.028v10h10.028zm-14.775 3.429-2.208 6.67 9.493 3.142 2.208-6.67zm1.8 13.186 4.002.598 1.478-9.89-4.002-.598zm-.259-4.347V42h10v-2.162zm5-2.838h-10.212v10h10.212zm16.61-23.336h-5a5 5 0 0 0 4.496 4.975zm0-2.162v-5a5 5 0 0 0-5 5zm13.892 0h5a5 5 0 0 0-5-5zm0 2.162.578 4.967a5 5 0 0 0 4.422-4.967zm-3.956.46-.577-4.967a4.998 4.998 0 0 0-3.971 7.045zm5.842 12.788-4.548 2.078a5 5 0 0 0 9.072.053zm5.98-12.696 4.524 2.13a5 5 0 0 0-3.782-7.075zm-3.68-.552h-5a5 5 0 0 0 4.259 4.945zm0-2.162v-5a5 5 0 0 0-5 5zm10.028 0h5a5 5 0 0 0-5-5zm0 2.162.802 4.935a5 5 0 0 0 4.198-4.935zm-3.68.598-.802-4.935a5 5 0 0 0-3.691 2.743zm-7.406 15.18-4.493-2.192a5 5 0 0 0-.507 2.192zm.046 9.936-4.999.106a5 5 0 0 0 4.476 4.866zm4.37.46h5a5 5 0 0 0-4.476-4.973zm0 2.162v5a5 5 0 0 0 5-5zm-14.766 0h-5a5 5 0 0 0 5 5zm0-2.162-.529-4.972a5 5 0 0 0-4.471 4.972zm4.324-.46.529 4.972a5 5 0 0 0 4.47-4.858zm.046-9.292h5c0-.76-.173-1.511-.507-2.195zM245 13.986l4.493-2.195a5 5 0 0 0-3.988-2.78zm1.826-.322v-2.162h-10v2.162zm-5 2.838h13.892v-10h-13.892zm8.892-5v2.162h10v-2.162zm4.423-2.805-3.956.46 1.155 9.933 3.956-.46zm-7.927 7.505 5.842 12.788 9.096-4.156-5.842-12.788zm14.914 12.84 5.98-12.695-9.047-4.262-5.98 12.696zm2.198-19.77-3.68-.553-1.483 9.89 3.68.552zm.578 4.392v-2.162h-10v2.162zm-5 2.838h10.028v-10h-10.028zm5.028-5v2.162h10v-2.162zm4.198-2.773-3.68.598 1.604 9.87 3.68-.598zm-7.371 3.34-7.406 15.18 8.987 4.385 7.406-15.18zm-7.913 17.373v5.428h10v-5.428zm0 5.428q0 2.396.047 4.614l9.998-.212q-.045-2.104-.045-4.402zm4.523 9.48 4.37.46 1.047-9.945-4.37-.46zm-.107-4.512V42h10v-2.162zm5-2.838h-14.766v10h14.766zm-9.766 5v-2.162h-10V42zm-4.471 2.81 4.324-.46-1.058-9.944-4.324.46zm8.794-5.318q.048-2.086.047-4.346h-10q0 2.157-.044 4.118zm.047-4.346v-5.06h-10v5.06zm-.507-7.255-7.866-16.1-8.985 4.39 7.866 16.1zm-11.854-18.88-3.174-.321-1.009 9.949 3.174.322zm29.483 32.575 3.536-3.535zm0-5.06 3.536 3.535zm5.06-24.748-3.444 3.625.089.083zm.598 6.808 4.959.64zm-1.196 7.406-4.919-.894-.016.093zm-.874 5.382v5a5 5 0 0 0 4.935-4.199zm-2.07 0-4.935.802a5 5 0 0 0 4.935 4.198zm-.874-5.382 4.935-.802-.014-.084zm-1.196-7.406-4.959.64.001.01zm.552-6.808-3.355-3.708-.089.083zm2.53 25.866c.122 0 .327.025.561.123.231.096.379.218.445.283l-7.072 7.072c1.626 1.625 3.734 2.522 6.066 2.522zm1.006.407c.065.065.187.213.283.444.098.234.123.439.123.561h-10c0 2.332.897 4.44 2.522 6.066zm.406 1.005c0 .122-.025.327-.123.56a1.4 1.4 0 0 1-.283.446l-7.072-7.071c-1.625 1.625-2.522 3.733-2.522 6.065zm-.406 1.006a1.4 1.4 0 0 1-.445.283 1.5 1.5 0 0 1-.561.123v-10c-2.332 0-4.44.897-6.066 2.522zm-1.006.406c-.086 0-.271-.018-.497-.11a1.5 1.5 0 0 1-.463-.296l7.072-7.071c-1.659-1.659-3.796-2.523-6.112-2.523zm-.96-.407a1.4 1.4 0 0 1-.283-.444 1.5 1.5 0 0 1-.123-.561h10c0-2.332-.897-4.44-2.522-6.065zm-.406-1.005c0-.122.025-.327.123-.56a1.4 1.4 0 0 1 .283-.446l7.072 7.072c1.625-1.626 2.522-3.734 2.522-6.066zm.406-1.005c.08-.08.236-.203.463-.297.226-.092.411-.11.497-.11v10c2.316 0 4.453-.864 6.112-2.523zm.96-22.147c.09 0 .003.013-.195-.056a2 2 0 0 1-.719-.445l6.888-7.25c-1.774-1.685-3.978-2.249-5.974-2.249zm-.825-.418a2.3 2.3 0 0 1-.631-.916c-.075-.212-.048-.271-.048-.078h10c0-2.04-.545-4.552-2.611-6.422zm-.679-.994c0 .478-.083 1.563-.327 3.454l9.918 1.28c.246-1.911.409-3.556.409-4.734zm-.327 3.454c-.23 1.781-.612 4.156-1.156 7.152l9.838 1.788c.56-3.076.975-5.639 1.236-7.66zm-1.172 7.244-.874 5.383 9.87 1.602.874-5.381zm4.061 1.184h-2.07v10h2.07zm2.865 4.199-.874-5.382-9.87 1.603.874 5.381zm-.888-5.467c-.546-3.031-.929-5.412-1.159-7.17l-9.916 1.3c.261 1.984.675 4.54 1.233 7.642zm-1.158-7.16c-.244-1.891-.327-2.976-.327-3.454h-10c0 1.178.163 2.823.409 4.734zm-.327-3.454c0-.215.029-.181-.035.007a2.3 2.3 0 0 1-.601.904l-6.888-7.25c-1.982 1.883-2.476 4.364-2.476 6.339zm-.725.994a1.8 1.8 0 0 1-.607.362c-.184.064-.275.056-.218.056v-10c-2.02 0-4.144.591-5.885 2.166z" mask="url(#a)"/></svg>