<svg width="481" height="90" viewBox="0 0 481 90" fill="none" xmlns="http://www.w3.org/2000/svg">
<path d="M292.552 10.824V9.132H303.388V10.824L300.364 11.148C300.34 12.636 300.316 14.148 300.292 15.684C300.292 17.196 300.292 18.732 300.292 20.292V21.84C300.292 23.352 300.292 24.876 300.292 26.412C300.316 27.924 300.34 29.448 300.364 30.984L303.388 31.308V33H292.552V31.308L295.576 30.984C295.624 29.496 295.648 27.984 295.648 26.448C295.648 24.912 295.648 23.376 295.648 21.84V20.292C295.648 18.78 295.648 17.268 295.648 15.756C295.648 14.22 295.624 12.684 295.576 11.148L292.552 10.824ZM305.833 33V31.308L309.181 30.84V11.22L305.977 10.824V9.132H314.005L321.025 27.024L327.649 9.132H335.677V10.824L332.725 11.148C332.701 12.636 332.677 14.148 332.653 15.684C332.653 17.196 332.653 18.732 332.653 20.292V21.84C332.653 23.376 332.653 24.912 332.653 26.448C332.677 27.96 332.701 29.472 332.725 30.984L335.749 31.308V33H325.129V31.308L327.973 30.948C328.021 29.46 328.045 27.984 328.045 26.52C328.045 25.032 328.045 23.604 328.045 22.236L328.081 13.668L320.953 33H318.649L311.089 13.668L311.269 20.724V30.84L314.257 31.308V33H305.833ZM338.212 33V31.308L341.56 30.84V11.22L338.356 10.824V9.132H346.384L353.404 27.024L360.028 9.132H368.056V10.824L365.104 11.148C365.08 12.636 365.056 14.148 365.032 15.684C365.032 17.196 365.032 18.732 365.032 20.292V21.84C365.032 23.376 365.032 24.912 365.032 26.448C365.056 27.96 365.08 29.472 365.104 30.984L368.128 31.308V33H357.508V31.308L360.352 30.948C360.4 29.46 360.424 27.984 360.424 26.52C360.424 25.032 360.424 23.604 360.424 22.236L360.46 13.668L353.332 33H351.028L343.468 13.668L343.648 20.724V30.84L346.636 31.308V33H338.212ZM381.587 33.612C380.147 33.612 378.755 33.348 377.411 32.82C376.067 32.292 374.855 31.5 373.775 30.444C372.719 29.388 371.879 28.08 371.255 26.52C370.655 24.96 370.355 23.136 370.355 21.048C370.355 19.032 370.667 17.244 371.291 15.684C371.915 14.124 372.755 12.816 373.811 11.76C374.867 10.68 376.067 9.876 377.411 9.348C378.755 8.796 380.147 8.52 381.587 8.52C383.027 8.52 384.407 8.784 385.727 9.312C387.071 9.84 388.271 10.632 389.327 11.688C390.383 12.72 391.223 14.028 391.847 15.612C392.471 17.172 392.783 18.984 392.783 21.048C392.783 23.064 392.471 24.852 391.847 26.412C391.247 27.972 390.407 29.292 389.327 30.372C388.271 31.428 387.071 32.232 385.727 32.784C384.407 33.336 383.027 33.612 381.587 33.612ZM381.587 31.668C383.027 31.668 384.191 31.176 385.079 30.192C385.967 29.208 386.615 27.912 387.023 26.304C387.455 24.696 387.671 22.944 387.671 21.048C387.671 19.152 387.455 17.4 387.023 15.792C386.615 14.184 385.967 12.888 385.079 11.904C384.191 10.92 383.027 10.428 381.587 10.428C380.147 10.428 378.971 10.92 378.059 11.904C377.147 12.888 376.475 14.184 376.043 15.792C375.635 17.4 375.431 19.152 375.431 21.048C375.431 22.944 375.635 24.696 376.043 26.304C376.475 27.912 377.147 29.208 378.059 30.192C378.971 31.176 380.147 31.668 381.587 31.668ZM405.043 10.968H402.739C402.715 12.504 402.691 14.04 402.667 15.576C402.667 17.112 402.667 18.648 402.667 20.184H404.755C406.627 20.184 407.959 19.728 408.751 18.816C409.567 17.904 409.975 16.788 409.975 15.468C409.975 12.468 408.331 10.968 405.043 10.968ZM394.963 10.824V9.132H405.799C408.607 9.132 410.767 9.672 412.279 10.752C413.815 11.832 414.583 13.332 414.583 15.252C414.583 16.116 414.367 16.956 413.935 17.772C413.527 18.588 412.867 19.296 411.955 19.896C411.043 20.496 409.843 20.916 408.355 21.156C409.867 21.396 410.983 21.924 411.703 22.74C412.447 23.556 412.987 24.744 413.323 26.304L414.439 31.02L417.211 31.308V33C416.611 33.168 416.083 33.276 415.627 33.324C415.195 33.396 414.631 33.432 413.935 33.432C412.615 33.432 411.583 33.216 410.839 32.784C410.119 32.352 409.663 31.584 409.471 30.48L408.427 25.476C408.163 24.132 407.707 23.22 407.059 22.74C406.435 22.236 405.487 21.984 404.215 21.984H402.667C402.667 23.592 402.667 25.14 402.667 26.628C402.691 28.092 402.715 29.544 402.739 30.984L405.799 31.308V33H394.963V31.308L397.987 30.984C398.035 29.496 398.059 27.984 398.059 26.448C398.059 24.912 398.059 23.376 398.059 21.84V20.292C398.059 18.78 398.059 17.268 398.059 15.756C398.059 14.22 398.035 12.684 397.987 11.148L394.963 10.824ZM416.919 15.684L417.135 9.132H437.547L437.727 15.684H435.243L434.487 11.04H429.735C429.711 12.552 429.687 14.088 429.663 15.648C429.663 17.184 429.663 18.732 429.663 20.292V21.84C429.663 23.352 429.663 24.876 429.663 26.412C429.687 27.924 429.711 29.436 429.735 30.948L433.119 31.308V33H421.527V31.308L424.911 30.948C424.959 29.46 424.983 27.96 424.983 26.448C424.983 24.912 424.983 23.376 424.983 21.84V20.292C424.983 18.756 424.983 17.22 424.983 15.684C424.983 14.124 424.959 12.576 424.911 11.04H420.195L419.439 15.684H416.919ZM446.581 13.776L443.269 23.748H449.857L446.581 13.776ZM436.033 33V31.308L438.985 30.876L446.509 8.988H449.461L456.985 31.056L459.433 31.344V33H449.029V31.344L452.197 30.948L450.469 25.62H442.621L440.893 30.84L444.025 31.308V33H436.033ZM461.056 10.824V9.132H472.036V10.824L468.868 11.184C468.844 12.672 468.82 14.184 468.796 15.72C468.796 17.232 468.796 18.756 468.796 20.292V22.488C468.796 23.76 468.796 25.128 468.796 26.592C468.82 28.056 468.844 29.544 468.868 31.056H476.14L477.148 26.088H479.668L479.308 33H461.056V31.308L464.08 30.984C464.128 29.472 464.152 27.984 464.152 26.52C464.152 25.032 464.152 23.604 464.152 22.236V20.292C464.152 18.732 464.152 17.196 464.152 15.684C464.152 14.148 464.128 12.636 464.08 11.148L461.056 10.824Z" fill="#7995D4"/>
<path d="M348.142 55.968H345.838C345.814 57.504 345.79 59.04 345.766 60.576C345.766 62.112 345.766 63.648 345.766 65.184H347.854C349.726 65.184 351.058 64.728 351.85 63.816C352.666 62.904 353.074 61.788 353.074 60.468C353.074 57.468 351.43 55.968 348.142 55.968ZM338.062 55.824V54.132H348.898C351.706 54.132 353.866 54.672 355.378 55.752C356.914 56.832 357.682 58.332 357.682 60.252C357.682 61.116 357.466 61.956 357.034 62.772C356.626 63.588 355.966 64.296 355.054 64.896C354.142 65.496 352.942 65.916 351.454 66.156C352.966 66.396 354.082 66.924 354.802 67.74C355.546 68.556 356.086 69.744 356.422 71.304L357.538 76.02L360.31 76.308V78C359.71 78.168 359.182 78.276 358.726 78.324C358.294 78.396 357.73 78.432 357.034 78.432C355.714 78.432 354.682 78.216 353.938 77.784C353.218 77.352 352.762 76.584 352.57 75.48L351.526 70.476C351.262 69.132 350.806 68.22 350.158 67.74C349.534 67.236 348.586 66.984 347.314 66.984H345.766C345.766 68.592 345.766 70.14 345.766 71.628C345.79 73.092 345.814 74.544 345.838 75.984L348.898 76.308V78H338.062V76.308L341.086 75.984C341.134 74.496 341.158 72.984 341.158 71.448C341.158 69.912 341.158 68.376 341.158 66.84V65.292C341.158 63.78 341.158 62.268 341.158 60.756C341.158 59.22 341.134 57.684 341.086 56.148L338.062 55.824ZM371.786 58.776L368.474 68.748H375.062L371.786 58.776ZM361.238 78V76.308L364.19 75.876L371.714 53.988H374.666L382.19 76.056L384.638 76.344V78H374.234V76.344L377.402 75.948L375.674 70.62H367.826L366.098 75.84L369.23 76.308V78H361.238ZM400.877 55.824V54.132H409.949V55.824L406.889 56.292V78.144H404.765L391.193 59.496V75.804L395.153 76.308V78H386.081V76.308L389.141 75.876V56.652L388.709 56.076L386.189 55.824V54.132H392.993L404.837 70.404V56.292L400.877 55.824ZM412.242 55.824V54.132H422.97V55.824L419.874 56.184C419.85 57.672 419.826 59.172 419.802 60.684C419.802 62.196 419.802 63.732 419.802 65.292V67.02L428.514 56.292L426.03 55.824V54.132H434.346V55.824L430.89 56.292L425.49 62.772L432.654 76.02L435.174 76.308V78H425.382V76.308L427.722 76.02L422.61 66.192L419.802 69.54C419.802 70.548 419.802 71.592 419.802 72.672C419.826 73.752 419.85 74.856 419.874 75.984L422.754 76.308V78H412.242V76.308L415.266 75.984C415.314 74.496 415.338 72.984 415.338 71.448C415.338 69.912 415.338 68.376 415.338 66.84V65.292C415.338 63.78 415.338 62.268 415.338 60.756C415.338 59.22 415.314 57.684 415.266 56.148L412.242 55.824Z" fill="black"/>
<path d="M244.088 24.6551C245.002 23.741 245.002 22.259 244.088 21.3449L229.193 6.4493C228.279 5.53523 226.797 5.53523 225.882 6.4493C224.968 7.36337 224.968 8.84537 225.882 9.75944L239.123 23L225.882 36.2406C224.968 37.1546 224.968 38.6366 225.882 39.5507C226.797 40.4648 228.279 40.4648 229.193 39.5507L244.088 24.6551ZM168 25.3406H242.433V20.6594H168V25.3406Z" fill="black"/>
<path d="M13.752 33.612C11.328 33.612 9.192 33.096 7.344 32.064C5.496 31.008 4.056 29.544 3.024 27.672C1.992 25.776 1.476 23.568 1.476 21.048C1.476 18.576 1.98 16.404 2.988 14.532C4.02 12.636 5.472 11.16 7.344 10.104C9.24 9.048 11.472 8.52 14.04 8.52C15.384 8.52 16.644 8.664 17.82 8.952C18.996 9.216 20.1 9.636 21.132 10.212L21.276 15.612H18.792L17.928 11.22C16.848 10.692 15.72 10.428 14.544 10.428C13.056 10.428 11.7 10.824 10.476 11.616C9.276 12.408 8.316 13.596 7.596 15.18C6.9 16.74 6.552 18.696 6.552 21.048C6.552 24.528 7.296 27.168 8.784 28.968C10.272 30.768 12.216 31.668 14.616 31.668C15.12 31.668 15.588 31.632 16.02 31.56C16.452 31.488 16.872 31.392 17.28 31.272V29.868C17.28 28.812 17.268 27.756 17.244 26.7C17.244 25.62 17.232 24.552 17.208 23.496L13.716 23.136V21.444H23.868V23.136L21.852 23.352C21.828 24.456 21.804 25.548 21.78 26.628C21.78 27.708 21.78 28.812 21.78 29.94V31.488C20.532 32.16 19.272 32.676 18 33.036C16.728 33.42 15.312 33.612 13.752 33.612ZM37.458 33.612C36.018 33.612 34.626 33.348 33.282 32.82C31.938 32.292 30.726 31.5 29.646 30.444C28.59 29.388 27.75 28.08 27.126 26.52C26.526 24.96 26.226 23.136 26.226 21.048C26.226 19.032 26.538 17.244 27.162 15.684C27.786 14.124 28.626 12.816 29.682 11.76C30.738 10.68 31.938 9.876 33.282 9.348C34.626 8.796 36.018 8.52 37.458 8.52C38.898 8.52 40.278 8.784 41.598 9.312C42.942 9.84 44.142 10.632 45.198 11.688C46.254 12.72 47.094 14.028 47.718 15.612C48.342 17.172 48.654 18.984 48.654 21.048C48.654 23.064 48.342 24.852 47.718 26.412C47.118 27.972 46.278 29.292 45.198 30.372C44.142 31.428 42.942 32.232 41.598 32.784C40.278 33.336 38.898 33.612 37.458 33.612ZM37.458 31.668C38.898 31.668 40.062 31.176 40.95 30.192C41.838 29.208 42.486 27.912 42.894 26.304C43.326 24.696 43.542 22.944 43.542 21.048C43.542 19.152 43.326 17.4 42.894 15.792C42.486 14.184 41.838 12.888 40.95 11.904C40.062 10.92 38.898 10.428 37.458 10.428C36.018 10.428 34.842 10.92 33.93 11.904C33.018 12.888 32.346 14.184 31.914 15.792C31.506 17.4 31.302 19.152 31.302 21.048C31.302 22.944 31.506 24.696 31.914 26.304C32.346 27.912 33.018 29.208 33.93 30.192C34.842 31.176 36.018 31.668 37.458 31.668ZM50.8337 10.824V9.132H61.8137V10.824L58.6457 11.184C58.6217 12.672 58.5977 14.184 58.5737 15.72C58.5737 17.232 58.5737 18.756 58.5737 20.292V22.488C58.5737 23.76 58.5737 25.128 58.5737 26.592C58.5977 28.056 58.6217 29.544 58.6457 31.056H65.9177L66.9257 26.088H69.4457L69.0857 33H50.8337V31.308L53.8577 30.984C53.9057 29.472 53.9297 27.984 53.9297 26.52C53.9297 25.032 53.9297 23.604 53.9297 22.236V20.292C53.9297 18.732 53.9297 17.196 53.9297 15.684C53.9297 14.148 53.9057 12.636 53.8577 11.148L50.8337 10.824ZM79.3159 21.552C79.3159 23.208 79.3159 24.828 79.3159 26.412C79.3399 27.996 79.3639 29.568 79.3879 31.128H81.4399C83.8879 31.128 85.7839 30.252 87.1279 28.5C88.4719 26.748 89.1439 24.276 89.1439 21.084C89.1439 17.796 88.4839 15.288 87.1639 13.56C85.8439 11.832 84.0079 10.968 81.6559 10.968H79.3879C79.3639 12.504 79.3399 14.052 79.3159 15.612C79.3159 17.172 79.3159 18.732 79.3159 20.292V21.552ZM71.5759 10.824V9.132H82.2319C84.6559 9.132 86.7559 9.6 88.5319 10.536C90.3319 11.472 91.7239 12.828 92.7079 14.604C93.6919 16.38 94.1839 18.528 94.1839 21.048C94.1839 23.592 93.6439 25.752 92.5639 27.528C91.4839 29.304 89.9959 30.66 88.0999 31.596C86.2039 32.532 84.0199 33 81.5479 33H71.5759V31.308L74.5999 30.984C74.6479 29.472 74.6719 27.936 74.6719 26.376C74.6719 24.816 74.6719 23.208 74.6719 21.552V20.292C74.6719 18.78 74.6719 17.268 74.6719 15.756C74.6719 14.22 74.6479 12.684 74.5999 11.148L71.5759 10.824Z" fill="#F5C432"/>
<path d="M11.484 55.968H9.18C9.156 57.504 9.132 59.04 9.108 60.576C9.108 62.112 9.108 63.648 9.108 65.184H11.196C13.068 65.184 14.4 64.728 15.192 63.816C16.008 62.904 16.416 61.788 16.416 60.468C16.416 57.468 14.772 55.968 11.484 55.968ZM1.404 55.824V54.132H12.24C15.048 54.132 17.208 54.672 18.72 55.752C20.256 56.832 21.024 58.332 21.024 60.252C21.024 61.116 20.808 61.956 20.376 62.772C19.968 63.588 19.308 64.296 18.396 64.896C17.484 65.496 16.284 65.916 14.796 66.156C16.308 66.396 17.424 66.924 18.144 67.74C18.888 68.556 19.428 69.744 19.764 71.304L20.88 76.02L23.652 76.308V78C23.052 78.168 22.524 78.276 22.068 78.324C21.636 78.396 21.072 78.432 20.376 78.432C19.056 78.432 18.024 78.216 17.28 77.784C16.56 77.352 16.104 76.584 15.912 75.48L14.868 70.476C14.604 69.132 14.148 68.22 13.5 67.74C12.876 67.236 11.928 66.984 10.656 66.984H9.108C9.108 68.592 9.108 70.14 9.108 71.628C9.132 73.092 9.156 74.544 9.18 75.984L12.24 76.308V78H1.404V76.308L4.428 75.984C4.476 74.496 4.5 72.984 4.5 71.448C4.5 69.912 4.5 68.376 4.5 66.84V65.292C4.5 63.78 4.5 62.268 4.5 60.756C4.5 59.22 4.476 57.684 4.428 56.148L1.404 55.824ZM35.1281 58.776L31.8161 68.748H38.4041L35.1281 58.776ZM24.5801 78V76.308L27.5321 75.876L35.0561 53.988H38.0081L45.5321 76.056L47.9801 76.344V78H37.5761V76.344L40.7441 75.948L39.0161 70.62H31.1681L29.4401 75.84L32.5721 76.308V78H24.5801ZM64.2192 55.824V54.132H73.2912V55.824L70.2312 56.292V78.144H68.1072L54.5352 59.496V75.804L58.4952 76.308V78H49.4232V76.308L52.4832 75.876V56.652L52.0512 56.076L49.5312 55.824V54.132H56.3352L68.1792 70.404V56.292L64.2192 55.824ZM75.5837 55.824V54.132H86.3117V55.824L83.2157 56.184C83.1917 57.672 83.1677 59.172 83.1437 60.684C83.1437 62.196 83.1437 63.732 83.1437 65.292V67.02L91.8557 56.292L89.3717 55.824V54.132H97.6877V55.824L94.2317 56.292L88.8317 62.772L95.9957 76.02L98.5157 76.308V78H88.7237V76.308L91.0637 76.02L85.9517 66.192L83.1437 69.54C83.1437 70.548 83.1437 71.592 83.1437 72.672C83.1677 73.752 83.1917 74.856 83.2157 75.984L86.0957 76.308V78H75.5837V76.308L78.6077 75.984C78.6557 74.496 78.6797 72.984 78.6797 71.448C78.6797 69.912 78.6797 68.376 78.6797 66.84V65.292C78.6797 63.78 78.6797 62.268 78.6797 60.756C78.6797 59.22 78.6557 57.684 78.6077 56.148L75.5837 55.824Z" fill="black"/>
</svg>
