<svg width="477" height="45" viewBox="0 0 477 45" fill="none" xmlns="http://www.w3.org/2000/svg">
<path d="M1.836 33V30.228C2.724 29.364 3.6 28.5 4.464 27.636C5.328 26.772 6.132 25.944 6.876 25.152C8.628 23.352 9.924 21.732 10.764 20.292C11.604 18.852 12.024 17.376 12.024 15.864C12.024 14.424 11.664 13.296 10.944 12.48C10.224 11.664 9.252 11.256 8.028 11.256C7.62 11.256 7.164 11.292 6.66 11.364L6.12 13.884C5.904 14.916 5.592 15.636 5.184 16.044C4.776 16.428 4.296 16.62 3.744 16.62C2.808 16.62 2.112 16.176 1.656 15.288C1.752 13.992 2.16 12.924 2.88 12.084C3.6 11.22 4.536 10.572 5.688 10.14C6.864 9.708 8.124 9.492 9.468 9.492C11.916 9.492 13.704 10.08 14.832 11.256C15.96 12.432 16.524 13.908 16.524 15.684C16.524 16.788 16.272 17.856 15.768 18.888C15.264 19.92 14.436 21.024 13.284 22.2C12.132 23.376 10.596 24.756 8.676 26.34C8.196 26.748 7.644 27.216 7.02 27.744C6.42 28.248 5.796 28.776 5.148 29.328H17.28V33H1.836ZM36.6671 27.06H33.1031V33H29.1071V27.06H19.5311V24.504L30.1151 9.672H33.1031V24H36.6671V27.06ZM22.0871 24H29.1071V14.028L22.0871 24ZM45.0023 33.504C43.5623 33.504 42.4343 33.144 41.6183 32.424C40.8023 31.704 40.3943 30.552 40.3943 28.968C40.3943 28.416 40.3943 27.9 40.3943 27.42C40.4183 26.916 40.4303 26.316 40.4303 25.62V17.952H37.7663V16.08L40.6823 15.72L42.0503 10.788H44.9663L44.8223 15.756H49.1423V17.952H44.7863V28.572C44.7863 29.46 44.9543 30.108 45.2903 30.516C45.6503 30.924 46.1183 31.128 46.6943 31.128C47.3423 31.128 48.0743 30.828 48.8903 30.228L49.7543 31.128C49.2983 31.872 48.6743 32.46 47.8823 32.892C47.0903 33.3 46.1303 33.504 45.0023 33.504ZM50.7198 33V31.524L53.0958 31.056C53.1198 30.168 53.1318 29.208 53.1318 28.176C53.1318 27.12 53.1318 26.208 53.1318 25.44V9.996L50.5038 9.636V8.232L56.9478 6.612L57.4878 6.936L57.3438 12.012V18.456C59.1918 16.32 61.2438 15.252 63.4998 15.252C65.0598 15.252 66.2718 15.768 67.1358 16.8C67.9998 17.832 68.4318 19.464 68.4318 21.696V25.44C68.4318 26.256 68.4318 27.18 68.4318 28.212C68.4318 29.244 68.4438 30.204 68.4678 31.092L70.6638 31.524V33H61.7718V31.524L64.0758 31.056C64.0998 30.168 64.1118 29.22 64.1118 28.212C64.1118 27.18 64.1118 26.256 64.1118 25.44V22.02C64.1118 20.604 63.9198 19.632 63.5358 19.104C63.1758 18.552 62.5398 18.276 61.6278 18.276C60.2838 18.276 58.8918 18.96 57.4518 20.328V25.44C57.4518 26.232 57.4518 27.144 57.4518 28.176C57.4518 29.208 57.4638 30.18 57.4878 31.092L59.6118 31.524V33H50.7198ZM88.3761 33.612C87.0321 33.612 85.7001 33.444 84.3801 33.108C83.0601 32.772 81.9321 32.304 80.9961 31.704L81.2121 26.52H83.9841L84.7041 30.876C85.2561 31.116 85.8201 31.308 86.3961 31.452C86.9721 31.572 87.6201 31.632 88.3401 31.632C89.8281 31.632 90.9921 31.284 91.8321 30.588C92.6961 29.868 93.1281 28.92 93.1281 27.744C93.1281 26.688 92.8281 25.86 92.2281 25.26C91.6281 24.66 90.6681 24.096 89.3481 23.568L87.8721 22.956C85.9041 22.116 84.3321 21.108 83.1561 19.932C82.0041 18.756 81.4281 17.22 81.4281 15.324C81.4281 13.908 81.7881 12.696 82.5081 11.688C83.2281 10.656 84.2241 9.876 85.4961 9.348C86.7921 8.796 88.2801 8.52 89.9601 8.52C91.2081 8.52 92.3721 8.688 93.4521 9.024C94.5321 9.36 95.4801 9.816 96.2961 10.392L96.0441 15.252H93.3081L92.5881 11.076C91.7481 10.692 90.8481 10.5 89.8881 10.5C88.6881 10.5 87.6681 10.824 86.8281 11.472C85.9881 12.096 85.5681 12.996 85.5681 14.172C85.5681 15.204 85.8921 16.044 86.5401 16.692C87.1881 17.34 88.1001 17.904 89.2761 18.384L90.8241 19.032C93.1761 20.016 94.8441 21.072 95.8281 22.2C96.8361 23.328 97.3401 24.78 97.3401 26.556C97.3401 28.668 96.5361 30.372 94.9281 31.668C93.3441 32.964 91.1601 33.612 88.3761 33.612ZM108.441 16.98C107.865 16.98 107.289 17.172 106.713 17.556C106.161 17.916 105.681 18.516 105.273 19.356C104.889 20.196 104.649 21.336 104.553 22.776H109.485C110.349 22.776 110.925 22.596 111.213 22.236C111.501 21.876 111.645 21.372 111.645 20.724C111.645 19.62 111.333 18.72 110.709 18.024C110.085 17.328 109.329 16.98 108.441 16.98ZM108.441 33.504C106.761 33.504 105.285 33.144 104.013 32.424C102.741 31.704 101.745 30.672 101.025 29.328C100.305 27.96 99.9453 26.34 99.9453 24.468C99.9453 22.548 100.353 20.904 101.169 19.536C102.009 18.144 103.089 17.088 104.409 16.368C105.753 15.624 107.181 15.252 108.693 15.252C110.109 15.252 111.345 15.552 112.401 16.152C113.457 16.752 114.273 17.592 114.849 18.672C115.449 19.752 115.749 21.024 115.749 22.488C115.749 23.256 115.677 23.916 115.533 24.468H104.517C104.613 26.532 105.153 28.08 106.137 29.112C107.145 30.144 108.405 30.66 109.917 30.66C110.973 30.66 111.861 30.456 112.581 30.048C113.325 29.616 113.997 29.064 114.597 28.392L115.641 29.328C114.945 30.648 113.985 31.68 112.761 32.424C111.561 33.144 110.121 33.504 108.441 33.504ZM117.941 41.388V39.912L120.389 39.444C120.413 38.388 120.425 37.368 120.425 36.384C120.449 35.424 120.461 34.488 120.461 33.576V23.532C120.461 22.548 120.449 21.768 120.425 21.192C120.425 20.592 120.401 19.932 120.353 19.212L117.833 18.888V17.52L123.809 15.252L124.385 15.612L124.565 17.808C126.197 16.104 127.997 15.252 129.965 15.252C131.261 15.252 132.437 15.612 133.493 16.332C134.549 17.028 135.377 18.048 135.977 19.392C136.601 20.736 136.913 22.368 136.913 24.288C136.913 26.184 136.565 27.828 135.869 29.22C135.197 30.588 134.297 31.644 133.169 32.388C132.041 33.132 130.781 33.504 129.389 33.504C128.501 33.504 127.673 33.336 126.905 33C126.137 32.664 125.405 32.124 124.709 31.38V33.54C124.709 34.428 124.709 35.352 124.709 36.312C124.733 37.296 124.757 38.316 124.781 39.372L127.589 39.912V41.388H117.941ZM128.273 17.808C127.721 17.808 127.157 17.952 126.581 18.24C126.029 18.528 125.441 18.912 124.817 19.392V29.58C125.825 30.516 126.893 30.984 128.021 30.984C129.221 30.984 130.229 30.468 131.045 29.436C131.885 28.38 132.305 26.736 132.305 24.504C132.305 22.296 131.933 20.628 131.189 19.5C130.445 18.372 129.473 17.808 128.273 17.808Z" fill="black"/>
<path d="M346.724 21.552C346.724 24.288 346.892 26.4 347.228 27.888C347.564 29.352 348.008 30.36 348.56 30.912C349.112 31.464 349.724 31.74 350.396 31.74C351.044 31.74 351.644 31.464 352.196 30.912C352.748 30.336 353.192 29.316 353.528 27.852C353.864 26.364 354.032 24.264 354.032 21.552C354.032 18.792 353.864 16.668 353.528 15.18C353.192 13.692 352.748 12.672 352.196 12.12C351.644 11.544 351.044 11.256 350.396 11.256C349.724 11.256 349.112 11.544 348.56 12.12C348.008 12.672 347.564 13.692 347.228 15.18C346.892 16.644 346.724 18.768 346.724 21.552ZM350.396 9.492C351.764 9.492 353.06 9.9 354.284 10.716C355.508 11.508 356.492 12.792 357.236 14.568C358.004 16.32 358.388 18.648 358.388 21.552C358.388 24.408 358.004 26.724 357.236 28.5C356.492 30.252 355.508 31.524 354.284 32.316C353.06 33.108 351.764 33.504 350.396 33.504C349.004 33.504 347.696 33.108 346.472 32.316C345.248 31.524 344.252 30.252 343.484 28.5C342.74 26.724 342.368 24.408 342.368 21.552C342.368 18.648 342.74 16.32 343.484 14.568C344.252 12.792 345.248 11.508 346.472 10.716C347.696 9.9 349.004 9.492 350.396 9.492ZM377.163 25.908C377.163 27.492 376.779 28.86 376.011 30.012C375.243 31.14 374.187 32.004 372.843 32.604C371.523 33.204 369.987 33.504 368.235 33.504C366.171 33.504 364.527 33.024 363.303 32.064C362.103 31.104 361.371 29.748 361.107 27.996C361.299 27.516 361.575 27.168 361.935 26.952C362.295 26.712 362.703 26.592 363.159 26.592C363.807 26.592 364.311 26.796 364.671 27.204C365.031 27.588 365.307 28.296 365.499 29.328L365.895 31.524C366.471 31.668 367.047 31.74 367.623 31.74C369.183 31.74 370.395 31.26 371.259 30.3C372.147 29.34 372.591 28.044 372.591 26.412C372.591 24.66 372.135 23.328 371.223 22.416C370.335 21.504 369.111 21.048 367.551 21.048C366.999 21.048 366.435 21.084 365.859 21.156C365.307 21.228 364.755 21.324 364.203 21.444L363.195 20.976L363.951 9.996H376.407V13.668H365.715L365.355 19.032C366.387 18.792 367.527 18.672 368.775 18.672C371.319 18.672 373.347 19.296 374.859 20.544C376.395 21.768 377.163 23.556 377.163 25.908ZM386.002 33.504C384.562 33.504 383.434 33.144 382.618 32.424C381.802 31.704 381.394 30.552 381.394 28.968C381.394 28.416 381.394 27.9 381.394 27.42C381.418 26.916 381.43 26.316 381.43 25.62V17.952H378.766V16.08L381.682 15.72L383.05 10.788H385.966L385.822 15.756H390.142V17.952H385.786V28.572C385.786 29.46 385.954 30.108 386.29 30.516C386.65 30.924 387.118 31.128 387.694 31.128C388.342 31.128 389.074 30.828 389.89 30.228L390.754 31.128C390.298 31.872 389.674 32.46 388.882 32.892C388.09 33.3 387.13 33.504 386.002 33.504ZM391.72 33V31.524L394.096 31.056C394.12 30.168 394.132 29.208 394.132 28.176C394.132 27.12 394.132 26.208 394.132 25.44V9.996L391.504 9.636V8.232L397.948 6.612L398.488 6.936L398.344 12.012V18.456C400.192 16.32 402.244 15.252 404.5 15.252C406.06 15.252 407.272 15.768 408.136 16.8C409 17.832 409.432 19.464 409.432 21.696V25.44C409.432 26.256 409.432 27.18 409.432 28.212C409.432 29.244 409.444 30.204 409.468 31.092L411.664 31.524V33H402.772V31.524L405.076 31.056C405.1 30.168 405.112 29.22 405.112 28.212C405.112 27.18 405.112 26.256 405.112 25.44V22.02C405.112 20.604 404.92 19.632 404.536 19.104C404.176 18.552 403.54 18.276 402.628 18.276C401.284 18.276 399.892 18.96 398.452 20.328V25.44C398.452 26.232 398.452 27.144 398.452 28.176C398.452 29.208 398.464 30.18 398.488 31.092L400.612 31.524V33H391.72ZM433.372 33.612C431.932 33.612 430.54 33.348 429.196 32.82C427.852 32.292 426.64 31.5 425.56 30.444C424.504 29.388 423.664 28.08 423.04 26.52C422.44 24.96 422.14 23.136 422.14 21.048C422.14 19.032 422.452 17.244 423.076 15.684C423.7 14.124 424.54 12.816 425.596 11.76C426.652 10.68 427.852 9.876 429.196 9.348C430.54 8.796 431.932 8.52 433.372 8.52C434.812 8.52 436.192 8.784 437.512 9.312C438.856 9.84 440.056 10.632 441.112 11.688C442.168 12.72 443.008 14.028 443.632 15.612C444.256 17.172 444.568 18.984 444.568 21.048C444.568 23.064 444.256 24.852 443.632 26.412C443.032 27.972 442.192 29.292 441.112 30.372C440.056 31.428 438.856 32.232 437.512 32.784C436.192 33.336 434.812 33.612 433.372 33.612ZM433.372 31.668C434.812 31.668 435.976 31.176 436.864 30.192C437.752 29.208 438.4 27.912 438.808 26.304C439.24 24.696 439.456 22.944 439.456 21.048C439.456 19.152 439.24 17.4 438.808 15.792C438.4 14.184 437.752 12.888 436.864 11.904C435.976 10.92 434.812 10.428 433.372 10.428C431.932 10.428 430.756 10.92 429.844 11.904C428.932 12.888 428.26 14.184 427.828 15.792C427.42 17.4 427.216 19.152 427.216 21.048C427.216 22.944 427.42 24.696 427.828 26.304C428.26 27.912 428.932 29.208 429.844 30.192C430.756 31.176 431.932 31.668 433.372 31.668ZM455.804 33.504C454.172 33.504 452.708 33.156 451.412 32.46C450.116 31.74 449.096 30.708 448.352 29.364C447.632 27.996 447.272 26.352 447.272 24.432C447.272 22.488 447.68 20.832 448.496 19.464C449.336 18.096 450.44 17.052 451.808 16.332C453.176 15.612 454.664 15.252 456.272 15.252C457.448 15.252 458.504 15.48 459.44 15.936C460.4 16.368 461.168 16.956 461.744 17.7C462.344 18.444 462.704 19.284 462.824 20.22C462.536 21.276 461.852 21.804 460.772 21.804C459.428 21.804 458.648 20.964 458.432 19.284L457.964 17.124C457.748 17.076 457.532 17.04 457.316 17.016C457.1 16.992 456.884 16.98 456.668 16.98C455.804 16.98 455 17.232 454.256 17.736C453.536 18.216 452.948 18.972 452.492 20.004C452.036 21.036 451.808 22.344 451.808 23.928C451.808 26.112 452.3 27.78 453.284 28.932C454.292 30.084 455.6 30.66 457.208 30.66C458.168 30.66 459.032 30.444 459.8 30.012C460.568 29.58 461.216 28.992 461.744 28.248L462.824 29.04C462.224 30.504 461.324 31.62 460.124 32.388C458.948 33.132 457.508 33.504 455.804 33.504ZM471.467 33.504C470.027 33.504 468.899 33.144 468.083 32.424C467.267 31.704 466.859 30.552 466.859 28.968C466.859 28.416 466.859 27.9 466.859 27.42C466.883 26.916 466.895 26.316 466.895 25.62V17.952H464.231V16.08L467.147 15.72L468.515 10.788H471.431L471.287 15.756H475.607V17.952H471.251V28.572C471.251 29.46 471.419 30.108 471.755 30.516C472.115 30.924 472.583 31.128 473.159 31.128C473.807 31.128 474.539 30.828 475.355 30.228L476.219 31.128C475.763 31.872 475.139 32.46 474.347 32.892C473.555 33.3 472.595 33.504 471.467 33.504Z" fill="black"/>
</svg>
