<svg xmlns="http://www.w3.org/2000/svg" width="114" height="58" fill="none"><mask id="a" width="107" height="43" x="5" y="5" fill="#000" maskUnits="userSpaceOnUse"><path fill="#fff" d="M5 5h107v43H5z"/><path d="m10.623 19.874.276-8.372h26.082l.23 8.372h-3.174l-.966-5.934H27l-.092 5.888v13.754L27 39.378l4.324.46V42H16.511v-2.162l4.324-.46q.092-2.852.092-5.75V19.874q0-2.99-.092-5.934H14.81l-.966 5.934zm29.31-6.21v-2.162h13.846v2.162l-3.864.414q-.047 2.852-.092 5.796v13.708l.092 5.842 3.864.414V42H39.933v-2.162l3.864-.414q.092-2.852.092-5.796V19.966q0-2.944-.092-5.888zm29.39.184h-1.979l-.092 5.934v8.004h2.254q3.634 0 5.29-1.978t1.656-5.198q0-3.266-1.794-5.014-1.748-1.748-5.336-1.748m-11.96-.184v-2.162h12.42q6.485 0 9.475 2.53 3.036 2.484 3.036 6.578 0 2.576-1.288 4.784-1.242 2.162-4.14 3.45-2.852 1.288-7.728 1.288h-1.886v4.508q.047 2.3.092 4.738l4.186.46V42H57.362v-2.162l3.864-.414q.093-2.852.092-5.796V19.966q0-2.944-.092-5.888zm37.189 29.118q-2.576 0-5.106-.644t-4.324-1.794l.276-6.624h3.542l.92 5.566a14 14 0 0 0 2.162.736q1.104.23 2.484.23 2.852 0 4.462-1.334 1.656-1.38 1.656-3.634 0-2.024-1.15-3.174t-3.68-2.162l-1.886-.782q-3.772-1.61-6.026-3.864-2.208-2.254-2.208-5.888 0-2.714 1.38-4.646 1.38-1.978 3.818-2.99 2.484-1.058 5.704-1.058 2.392 0 4.462.644 2.07.645 3.634 1.748l-.322 6.21h-3.496l-.92-5.336a8.2 8.2 0 0 0-3.45-.736q-2.3 0-3.91 1.242-1.61 1.195-1.61 3.45 0 1.978 1.242 3.22t3.496 2.162l1.978.828q4.508 1.886 6.394 4.048 1.932 2.162 1.932 5.566 0 4.048-3.082 6.532-3.036 2.484-8.372 2.484"/></mask><path fill="#FCCA0B" d="m10.623 19.874.276-8.372h26.082l.23 8.372h-3.174l-.966-5.934H27l-.092 5.888v13.754L27 39.378l4.324.46V42H16.511v-2.162l4.324-.46q.092-2.852.092-5.75V19.874q0-2.99-.092-5.934H14.81l-.966 5.934zm29.31-6.21v-2.162h13.846v2.162l-3.864.414q-.047 2.852-.092 5.796v13.708l.092 5.842 3.864.414V42H39.933v-2.162l3.864-.414q.092-2.852.092-5.796V19.966q0-2.944-.092-5.888zm29.39.184h-1.979l-.092 5.934v8.004h2.254q3.634 0 5.29-1.978t1.656-5.198q0-3.266-1.794-5.014-1.748-1.748-5.336-1.748m-11.96-.184v-2.162h12.42q6.485 0 9.475 2.53 3.036 2.484 3.036 6.578 0 2.576-1.288 4.784-1.242 2.162-4.14 3.45-2.852 1.288-7.728 1.288h-1.886v4.508q.047 2.3.092 4.738l4.186.46V42H57.362v-2.162l3.864-.414q.093-2.852.092-5.796V19.966q0-2.944-.092-5.888zm37.189 29.118q-2.576 0-5.106-.644t-4.324-1.794l.276-6.624h3.542l.92 5.566a14 14 0 0 0 2.162.736q1.104.23 2.484.23 2.852 0 4.462-1.334 1.656-1.38 1.656-3.634 0-2.024-1.15-3.174t-3.68-2.162l-1.886-.782q-3.772-1.61-6.026-3.864-2.208-2.254-2.208-5.888 0-2.714 1.38-4.646 1.38-1.978 3.818-2.99 2.484-1.058 5.704-1.058 2.392 0 4.462.644 2.07.645 3.634 1.748l-.322 6.21h-3.496l-.92-5.336a8.2 8.2 0 0 0-3.45-.736q-2.3 0-3.91 1.242-1.61 1.195-1.61 3.45 0 1.978 1.242 3.22t3.496 2.162l1.978.828q4.508 1.886 6.394 4.048 1.932 2.162 1.932 5.566 0 4.048-3.082 6.532-3.036 2.484-8.372 2.484"/><path fill="#000" d="m10.623 19.874-4.997-.165a5 5 0 0 0 4.997 5.165zm.276-8.372v-5a5 5 0 0 0-4.997 4.835zm26.082 0 4.998-.137a5 5 0 0 0-4.998-4.863zm.23 8.372v5a5 5 0 0 0 4.998-5.137zm-3.174 0-4.935.803a5 5 0 0 0 4.935 4.197zm-.966-5.934 4.935-.803a5 5 0 0 0-4.935-4.197zm-6.072 0v-5a5 5 0 0 0-5 4.92zm-.092 5.888-5-.077v.077zm0 13.754h-5v.08zM27 39.378l-5 .08a5 5 0 0 0 4.471 4.892zm4.324.46h5a5 5 0 0 0-4.47-4.972zm0 2.162v5a5 5 0 0 0 5-5zm-14.812 0h-5a5 5 0 0 0 5 5zm0-2.162-.529-4.972a5 5 0 0 0-4.47 4.972zm4.324-.46.53 4.972a5 5 0 0 0 4.468-4.81zm0-25.438 4.998-.156a5 5 0 0 0-4.998-4.844zm-6.026 0v-5a5 5 0 0 0-4.935 4.197zm-.966 5.934v5a5 5 0 0 0 4.935-4.197zm1.777.165.276-8.372-9.994-.33-.276 8.372zm-4.72-3.537H36.98v-10H10.9zm21.083-4.863.23 8.372 9.996-.274-.23-8.372zm5.228 3.235h-3.174v10h3.174zm1.761 4.197-.966-5.934-9.87 1.606.966 5.934zm-5.9-10.131h-6.073v10h6.072zM22 13.86q-.046 2.9-.092 5.891l9.999.154q.045-2.99.091-5.886zm-.093 5.968v5.934h10v-5.934zm0 5.934v1.978h10v-1.978zm0 1.978v5.842h10V27.74zm0 5.921L22 39.457l9.999-.158-.092-5.796zM26.47 44.35l4.324.46 1.058-9.944-4.324-.46zm-.147-4.512V42h10v-2.162zm5-2.838H16.511v10h14.812zm-9.812 5v-2.162h-10V42zm-4.47 2.81 4.323-.46-1.058-9.944-4.324.46zm8.792-5.27q.094-2.935.094-5.912h-10q0 2.82-.09 5.589zm.094-5.912V27.74h-10v5.888zm0-5.888v-1.978h-10v1.978zm0-1.978v-5.888h-10v5.888zm0-5.888q0-3.067-.094-6.09l-9.995.312q.09 2.865.09 5.778zM20.835 8.94H14.81v10h6.026zm-10.96 4.197-.967 5.934 9.87 1.606.966-5.934zm3.968 1.737h-3.22v10h3.22zm26.09-1.21h-5a5 5 0 0 0 4.467 4.972zm0-2.162v-5a5 5 0 0 0-5 5zm13.846 0h5a5 5 0 0 0-5-5zm0 2.162.532 4.972a5 5 0 0 0 4.468-4.972zm-3.864.414-.533-4.972a5 5 0 0 0-4.467 4.891zm-.092 5.796-5-.078v.078zm0 13.708h-5v.08zm.092 5.842-5 .078a5 5 0 0 0 4.467 4.893zm3.864.414h5a5 5 0 0 0-4.468-4.971zm0 2.162v5a5 5 0 0 0 5-5zm-13.846 0h-5a5 5 0 0 0 5 5zm0-2.162-.533-4.971a5 5 0 0 0-4.467 4.971zm3.864-.414.532 4.971a5 5 0 0 0 4.465-4.81zm0-25.346 4.997-.156a5 5 0 0 0-4.465-4.816zm1.136-.414v-2.162h-10v2.162zm-5 2.838h13.846v-10H39.933zm8.846-5v2.162h10v-2.162zm4.467-2.81-3.864.414 1.065 9.943 3.864-.413zm-8.33 5.305-.093 5.799 10 .156q.045-2.943.091-5.793zm-.093 5.877v5.888h10v-5.888zm0 5.888v1.978h10v-1.978zm0 1.978v5.842h10V27.74zm0 5.921.092 5.841 10-.156-.093-5.843zm4.559 10.734 3.864.414 1.065-9.942-3.864-.414zm-.603-4.557V42h10v-2.162zm5-2.838H39.933v10h13.846zm-8.846 5v-2.162h-10V42zm-4.468 2.81 3.864-.415-1.065-9.943-3.864.415zm8.33-5.225q.093-2.934.094-5.957h-10q0 2.865-.09 5.635zm.094-5.957V27.74h-10v5.888zm0-5.888v-1.978h-10v1.978zm0-1.978v-5.796h-10v5.796zm0-5.796q0-3.023-.095-6.044l-9.995.312q.09 2.865.09 5.732zm-4.56-10.86-3.864-.414-1.065 9.944 3.864.413zm23.015 4.742v-5a5 5 0 0 0-4.999 4.922zm-.092 5.934-4.999-.077v.077zm0 8.004h-5a5 5 0 0 0 5 5zm7.544-1.978-3.833-3.21zm-.138-10.212-3.535 3.535.046.046zm-17.296-1.932h-5a5 5 0 0 0 4.468 4.972zm0-2.162v-5a5 5 0 0 0-5 5zm21.896 2.53-3.23 3.817.064.053zm1.748 11.362-4.318-2.52-.017.03zm-4.14 3.45-2.03-4.57q-.015.008-.028.013zm-9.614 1.288v-5a5 5 0 0 0-5 5zm0 4.508h-5l.001.1zm.092 4.738-4.999.094a5 5 0 0 0 4.453 4.876zm4.186.46h5a5 5 0 0 0-4.454-4.97zm0 2.162v5a5 5 0 0 0 5-5zm-14.168 0h-5a5 5 0 0 0 5 5zm0-2.162-.532-4.971a5 5 0 0 0-4.468 4.971zm3.864-.414.533 4.971a5 5 0 0 0 4.465-4.81zm0-25.346 4.998-.156a5 5 0 0 0-4.465-4.816zm8.096-5.23h-1.978v10h1.978zm-6.977 4.922-.092 5.935 9.999.154.092-5.933zm-.093 6.012v5.98h10v-5.98zm0 5.98v2.024h10v-2.024zm5 7.024h2.254v-10h-2.254zm2.254 0c3.272 0 6.729-.907 9.124-3.768l-7.667-6.42c.054-.065.082-.046-.068.01-.187.07-.612.178-1.389.178zm9.124-3.768c2.03-2.425 2.822-5.388 2.822-8.408h-10c0 1.273-.311 1.776-.49 1.988zm2.822-8.408c0-3.097-.873-6.227-3.304-8.595l-6.979 7.162c.019.018.068.066.127.23.067.19.156.563.156 1.203zm-3.258-8.55c-2.456-2.455-5.753-3.212-8.872-3.212v10c1.666 0 1.926.408 1.8.284zm-15.832 1.604v-2.162h-10v2.162zm-5 2.838h12.42v-10h-12.42zm12.42 0c3.86 0 5.584.786 6.247 1.347l6.46-7.634c-3.325-2.813-7.919-3.713-12.707-3.713zm6.31 1.4c.806.66 1.202 1.403 1.202 2.708h10c0-4.154-1.628-7.795-4.87-10.448zm1.202 2.708c0 .84-.197 1.564-.606 2.265l8.637 5.038a14.33 14.33 0 0 0 1.97-7.303zm-.623 2.293c-.172.299-.607.826-1.835 1.372l4.061 9.138c2.636-1.171 4.96-2.944 6.445-5.528zm-1.863 1.384c-.994.45-2.774.845-5.67.845v10c3.606 0 6.978-.463 9.786-1.731zm-5.67.845h-1.886v10h1.886zm-6.886 5v4.508h10v-4.508zm.001 4.608q.047 2.297.092 4.732l9.999-.188-.093-4.744zm4.545 9.608 4.186.46 1.093-9.94-4.186-.46zm-.268-4.51V42h10v-2.162zm5-2.838H57.362v10H71.53zm-9.168 5v-2.162h-10V42zm-4.467 2.81 3.864-.415-1.065-9.943-3.864.415zm8.329-5.225q.094-2.934.094-5.957h-10q0 2.865-.089 5.635zm.094-5.957V27.74h-10v5.888zm0-5.888v-1.978h-10v1.978zm0-1.978v-5.796h-10v5.796zm0-5.796q0-3.023-.094-6.044l-9.995.312q.09 2.865.09 5.732zM61.76 9.106l-3.864-.414-1.065 9.944 3.864.413zm27.687 33.032 1.233-4.846zm-4.324-1.794-4.996-.208a5 5 0 0 0 2.298 4.417zm.276-6.624v-5a5 5 0 0 0-4.996 4.792zm3.542 0 4.933-.815a5 5 0 0 0-4.933-4.185zm.92 5.566-4.933.815a5 5 0 0 0 2.94 3.77zm2.162.736-1.213 4.85q.096.025.193.045zm6.946-1.104 3.19 3.85.011-.009zm.506-6.808-3.536 3.535zm-3.68-2.162-1.915 4.619.058.023zm-1.886-.782-1.963 4.599.048.02zm-6.026-3.864-3.572 3.499.036.037zm-.828-10.534 4.069 2.906.032-.045zm3.818-2.99 1.917 4.618.042-.018zm10.166-.414-1.485 4.774zm3.634 1.748 4.993.259a5 5 0 0 0-2.11-4.344zm-.322 6.21v5a5 5 0 0 0 4.993-4.741zm-3.496 0-4.927.85a5 5 0 0 0 4.927 4.15zm-.92-5.336 4.927-.85a5 5 0 0 0-2.848-3.697zm-7.36.506 2.981 4.014.073-.055zm-.368 6.67-3.536 3.536zm3.496 2.162 1.93-4.612-.04-.017zm1.978.828-1.93 4.612zm6.394 4.048-3.768 3.287.04.045zm-1.15 12.098-3.138-3.893-.028.023zm-8.372-2.516c-1.296 0-2.584-.161-3.873-.49l-2.466 9.691c2.084.531 4.2.799 6.339.799zm-3.873-.49c-1.28-.325-2.202-.736-2.859-1.157l-5.396 8.418c1.735 1.113 3.695 1.898 5.788 2.43zm-.561 3.26.276-6.624-9.992-.416-.276 6.624zm-4.72-1.832h3.542v-10h-3.542zm-1.391-4.185.92 5.566 9.866-1.63-.92-5.566zm3.86 9.336q1.431.623 2.942 1.002l2.426-9.702a9 9 0 0 1-1.381-.47zm3.135 1.046c1.136.237 2.314.335 3.504.335v-10c-.65 0-1.128-.055-1.464-.125zm3.504.335c2.643 0 5.403-.62 7.652-2.484l-6.38-7.7c.103-.085-.113.184-1.272.184zm7.663-2.493c2.302-1.919 3.455-4.566 3.455-7.475h-10c0 .07-.006.091-.003.076a.727.727 0 0 1 .123-.254c.028-.036.04-.044.023-.03zm3.455-7.475c0-2.332-.693-4.788-2.615-6.71l-7.07 7.071a1.4 1.4 0 0 1-.303-.463c-.042-.114-.012-.104-.012.102zm-2.615-6.71c-1.463-1.463-3.411-2.49-5.358-3.268l-3.714 9.284c.67.269 1.162.512 1.51.716.17.1.292.183.376.245.083.062.117.096.115.094zm-5.3-3.245-1.886-.782-3.83 9.238 1.886.782zm-1.838-.762c-2.088-.89-3.511-1.858-4.453-2.8l-7.072 7.07c2.064 2.064 4.658 3.672 7.6 4.928zm-4.417-2.764c-.417-.425-.78-1.06-.78-2.389h-10c0 3.516 1.109 6.807 3.636 9.387zm-.78-2.389c0-.922.218-1.418.449-1.74l-8.138-5.812c-1.61 2.254-2.311 4.855-2.311 7.552zm.48-1.785c.324-.463.804-.888 1.635-1.233L88.955 7.16c-2.42 1.004-4.485 2.573-6.002 4.747zm1.677-1.25c.93-.397 2.144-.659 3.745-.659v-10c-2.693 0-5.28.443-7.663 1.458zm3.745-.659c1.143 0 2.124.153 2.977.418l2.97-9.548c-1.908-.594-3.9-.87-5.947-.87zm2.977.418c.945.295 1.672.661 2.236 1.059l5.766-8.17c-1.522-1.074-3.218-1.873-5.032-2.437zm.126-3.285-.322 6.21 9.986.518.322-6.21zm4.671 1.469h-3.496v10h3.496zm1.431 4.15-.92-5.336-9.854 1.7.92 5.336zm-3.768-9.033a13.2 13.2 0 0 0-5.53-1.189v10c.54 0 .977.103 1.372.283zm-5.53-1.189c-2.485 0-4.901.693-6.963 2.283l6.108 7.918c.085-.066.275-.201.856-.201zm-6.89 2.228c-2.514 1.867-3.63 4.605-3.63 7.464h10c0-.154.027-.073-.066.125a1.3 1.3 0 0 1-.174.275 1 1 0 0 1-.168.164zm-3.63 7.464c0 2.462.82 4.868 2.707 6.756l7.072-7.071q.045.044.107.134.06.091.09.176c.045.115.025.138.025.005zm2.707 6.756c1.443 1.442 3.246 2.481 5.142 3.255l3.78-9.258c-1.11-.453-1.637-.855-1.85-1.069zm5.101 3.238 1.978.828 3.862-9.224-1.978-.828zm1.98.829c2.73 1.142 4.037 2.128 4.555 2.722l7.536-6.574c-1.997-2.29-4.952-4.001-8.232-5.374zm4.595 2.767c.329.369.66.967.66 2.234h10c0-3.272-.957-6.384-3.204-8.898zm.66 2.234c0 1.226-.373 1.957-1.22 2.639l6.276 7.786c3.263-2.63 4.944-6.254 4.944-10.425zm-1.248 2.662c-.856.7-2.388 1.354-5.206 1.354v10c4.297 0 8.345-1.002 11.538-3.614z" mask="url(#a)"/></svg>